<svg width="100" height="100" viewBox="0 0 100 100" fill="none" xmlns="http://www.w3.org/2000/svg">
<path d="M0 20H100V93C100 96.866 96.866 100 93 100H7C3.13401 100 0 96.866 0 93V20Z" fill="#4CAF50"/>
<path d="M0 7C0 3.13401 3.13401 0 7 0H93C96.866 0 100 3.13401 100 7V20H0V7Z" fill="#075218"/>
<rect x="45" y="20" width="10" height="80" fill="#80E27E"/>
<rect y="65" width="10" height="100" transform="rotate(-90 0 65)" fill="#80E27E"/>
<path d="M0 7C0 3.13401 3.13401 0 7 0H93C96.866 0 100 3.13401 100 7V20H0V7Z" fill="#087F23"/>
<path d="M46.7566 13.0579L38.5513 17.5657C36.7943 18.4327 34.7098 17.3012 34.4776 15.3558C34.3157 13.9983 34.1943 12.2354 34.1943 10C34.1943 7.76465 34.3157 6.00176 34.4776 4.64419C34.7098 2.69879 36.7944 1.56731 38.5513 2.43434L46.7566 6.94208L49.9998 10L46.7566 13.0579Z" fill="#D02D7F"/>
<path d="M53.2432 13.0579L61.4485 17.5657C63.2055 18.4327 65.29 17.3012 65.5222 15.3558C65.6842 13.9982 65.8055 12.2353 65.8055 9.99994C65.8055 7.76454 65.6841 6.00165 65.5222 4.64407C65.29 2.69867 63.2054 1.56719 61.4485 2.43422L53.2432 6.94196L50 10L53.2432 13.0579Z" fill="#C42C78"/>
<path d="M51.8293 13.721H48.1707C47.3899 13.721 46.7568 13.0879 46.7568 12.307V7.69296C46.7568 6.9121 47.3899 6.27905 48.1707 6.27905H51.8293C52.6102 6.27905 53.2432 6.9121 53.2432 7.69296V12.307C53.2432 13.0879 52.6102 13.721 51.8293 13.721Z" fill="#C42C78"/>
<path d="M51.8293 13.7209H50V6.27917H51.8293C52.6102 6.27917 53.2432 6.91222 53.2432 7.69307V12.3071C53.2432 13.0879 52.6102 13.7209 51.8293 13.7209Z" fill="#B82971"/>
<path d="M40.6821 8.22583L47.3608 9.73633L47.6486 8.46404L40.9698 6.95354L40.6821 8.22583Z" fill="#C42C78"/>
<path d="M40.682 11.7748L40.9697 13.0471L47.6485 11.5366L47.3607 10.2644L40.682 11.7748Z" fill="#C42C78"/>
<path d="M52.3529 8.46429L52.6406 9.73657L59.3194 8.22609L59.0316 6.95381L52.3529 8.46429Z" fill="#B82971"/>
<path d="M52.3525 11.5351L59.0312 13.0455L59.319 11.7733L52.6403 10.2628L52.3525 11.5351Z" fill="#B82971"/>
</svg>
