<svg xmlns="http://www.w3.org/2000/svg" viewBox="0 0 1152 576.74"><defs><style>.cls-1{fill:#f7f7f2;}</style></defs><g id="Capa_2" data-name="Capa 2"><g id="Capa_1-2" data-name="Capa 1"><path class="cls-1" d="M.05,288.77c0,159,128.93,288,288,288s288-128.93,288-288S447.07.8,288,.8.05,129.73.05,288.77ZM504,289c0,119.29-96.71,216-216,216S72,408.29,72,289,168.71,73,288,73,504,169.71,504,289Z"/><path class="cls-1" d="M99,36.49V0H0V99H36.5A316.37,316.37,0,0,1,99,36.49Z"/><path class="cls-1" d="M539.89,99H576V0H477V36.05A316.82,316.82,0,0,1,539.89,99Z"/><path class="cls-1" d="M477,539.31V576h99V477H539.39A316.42,316.42,0,0,1,477,539.31Z"/><path class="cls-1" d="M36.67,477H0v99H99V539.26A316.68,316.68,0,0,1,36.67,477Z"/><path class="cls-1" d="M602.71,287.68a318,318,0,0,1-2.1,36.32H1152V252H600.68A318.35,318.35,0,0,1,602.71,287.68Z"/><path class="cls-1" d="M452.2,369H435V342l-45-18-45,18v27H237V279l-18-18V207l-72-.13v54L129,279.47V386.9A188.87,188.87,0,0,0,290,477,191.06,191.06,0,0,0,452.2,387Z"/><rect class="cls-1" x="935.97" y="351.98" width="72.01" height="71.99"/><rect class="cls-1" x="1079.97" y="351.97" width="72.03" height="144.04"/></g></g></svg>