<svg xmlns="http://www.w3.org/2000/svg" viewBox="0 0 486.44 487.47"><defs><style>.cls-1{fill:#f7f7f2;}</style></defs><g id="Capa_2" data-name="Capa 2"><g id="Capa_1-2" data-name="Capa 1"><path class="cls-1" d="M0,121.94A121.6,121.6,0,1,0,121.62.34,121.59,121.59,0,0,0,0,121.94Zm212.79.09a91.21,91.21,0,1,1-91.21-91.21A91.21,91.21,0,0,1,212.82,122Z"/><path class="cls-1" d="M41.81,15.41V0H0V41.8H15.41A133.62,133.62,0,0,1,41.81,15.41Z"/><path class="cls-1" d="M228,41.8h15.25V0h-41.8V15.22A133.73,133.73,0,0,1,228,41.8Z"/><path class="cls-1" d="M201.42,227.73v15.49h41.8v-41.8H227.76A133.72,133.72,0,0,1,201.42,227.73Z"/><path class="cls-1" d="M15.49,201.42H0v41.8H41.81V227.71A133.52,133.52,0,0,1,15.49,201.42Z"/><path class="cls-1" d="M254.5,121.47a133.89,133.89,0,0,1-.89,15.34H486.44v-30.4H253.64A133.72,133.72,0,0,1,254.5,121.47Z"/><path class="cls-1" d="M191,155.81h-7.27v-11.4l-19-7.6-19,7.6v11.4h-45.6v-38l-7.6-7.6V87.41l-30.41-.06v22.8L54.45,118v45.36a79.75,79.75,0,0,0,68,38,80.68,80.68,0,0,0,68.48-38Z"/><rect class="cls-1" x="395.22" y="148.63" width="30.41" height="30.4"/><rect class="cls-1" x="456.03" y="148.62" width="30.42" height="60.82"/><path class="cls-1" d="M62.89,270.13V485.62h-24V387H24.05v98.65H0V270.13H24.05v99H38.84v-99Z"/><path class="cls-1" d="M111,428.59H94l-4.62,57H68.74L87.86,270.13h30.82L139,485.62H115.91ZM95.56,410.71h13.88l-6.48-74H102Z"/><path class="cls-1" d="M173.24,487.47a31.39,31.39,0,0,1-10.48-1.85,28,28,0,0,1-9.4-5.55,26.21,26.21,0,0,1-6.63-9.56,36.56,36.56,0,0,1-2.46-14.18V299.42a36.59,36.59,0,0,1,2.46-14.18,26.29,26.29,0,0,1,6.63-9.56,28.3,28.3,0,0,1,9.4-5.55,31.39,31.39,0,0,1,10.48-1.85h5.55a31.34,31.34,0,0,1,10.48,1.85,28.35,28.35,0,0,1,9.41,5.55,26.15,26.15,0,0,1,6.62,9.56,36.4,36.4,0,0,1,2.47,14.18v57.65h-24V302.81q0-8-1.85-11.1a5.83,5.83,0,0,0-5.24-3.08H175.4a5.76,5.76,0,0,0-5.24,3.24q-1.84,3.24-1.85,11.25V452.63q0,8,1.85,11.26a5.77,5.77,0,0,0,5.24,3.23h1.24a5.79,5.79,0,0,0,5.24-3.23q1.85-3.24,1.85-11.26V398.38h24v57.95a36.37,36.37,0,0,1-2.47,14.18,26.07,26.07,0,0,1-6.62,9.56,28,28,0,0,1-9.41,5.55,31.34,31.34,0,0,1-10.48,1.85Z"/><path class="cls-1" d="M258.63,374l25.28,111.6H261.72L242,406.39h-.62v79.23h-24V270.13h24v81.39H242l20.34-81.39h22.2Z"/><path class="cls-1" d="M314.12,290.48v78.3h21V387h-21v78.3h28.67v20.35H290.08V270.13h50.86v20.35Z"/><path class="cls-1" d="M385,270.13a28.77,28.77,0,0,1,20.5,8q8.48,8,8.48,22.81v70.29q0,14.17-8,20.19t-20,6H374.23v88.17h-24V270.13Zm4.63,34.53q0-14.18-7.09-14.18h-8.33v86.93h9.25q6.16,0,6.17-13.56Z"/><path class="cls-1" d="M462.4,356.76V302.81q0-8-1.85-11.1a5.81,5.81,0,0,0-5.24-3.08h-1.23a5.77,5.77,0,0,0-5.25,3.24Q447,295.11,447,303.12V329q0,15.12,6.16,25.9a212,212,0,0,0,13.56,20.81,202.31,202.31,0,0,1,13.57,21q6.17,10.95,6.16,26.36v33.29A36.56,36.56,0,0,1,484,470.51a27.18,27.18,0,0,1-6.48,9.56,26.35,26.35,0,0,1-9.24,5.55,32.29,32.29,0,0,1-10.79,1.85h-4.63a34.83,34.83,0,0,1-10.79-1.7,26.13,26.13,0,0,1-9.55-5.55,28,28,0,0,1-6.94-9.71,34.53,34.53,0,0,1-2.62-14.18V398.68h21.89v53.95q0,8,2.46,11.26a7.24,7.24,0,0,0,5.86,3.23h1.23a6.85,6.85,0,0,0,5.71-3.23q2.31-3.24,2.31-11.26V426.74q0-15.11-6.17-25.9A214.39,214.39,0,0,0,442.67,380a200.11,200.11,0,0,1-13.56-21q-6.18-10.94-6.17-26.36V299.42a34.56,34.56,0,0,1,2.62-14.18,27.74,27.74,0,0,1,6.78-9.56,28.4,28.4,0,0,1,9.4-5.55,31.44,31.44,0,0,1,10.49-1.85h3.08a30.91,30.91,0,0,1,10.63,1.85,28.56,28.56,0,0,1,9.25,5.55,26.17,26.17,0,0,1,6.63,9.56,36.58,36.58,0,0,1,2.47,14.18v57.34Z"/></g></g></svg>