<svg width="538" height="106" viewBox="0 0 538 106" fill="none" xmlns="http://www.w3.org/2000/svg">
<g clip-path="url(#clip0)">
<rect x="421" y="79.5" width="22" height="2" fill="#C4C4C4"/>
<path d="M260 84.5H283.5V77.5H273V72.5H302L308.5 72.3L315 72.5H327.5C343.341 72.0582 344 77.5 344 77.5C344 77.5 356.5 77.5 360 77.5C363.5 77.5 363.5 75 363.5 75L363 28L369.5 27V23.5L368.5 22.5L371.5 21.5L368.5 10.5L374.5 9H395L391.5 20H393H394.5H395.5H399H416.5V72.5C416.5 72.5 416.5 75 418 77.5C419.5 80 446 79 448 78C450 77 450.5 75 454 75C457.5 75 460.5 75 460.5 75V88.5V106H304.5H260V84.5Z" fill="#C4C4C4"/>
<line x1="372.05" y1="6" x2="372.05" y2="10" stroke="#C4C4C4" stroke-width="0.1"/>
<line x1="374.05" y1="8" x2="374.05" y2="10" stroke="#C4C4C4" stroke-width="0.1"/>
<line x1="374.024" y1="8.05449" x2="370.487" y2="9.13873" stroke="#C4C4C4" stroke-width="0.1"/>
<line x1="391" y1="8.05" x2="374" y2="8.05" stroke="#C4C4C4" stroke-width="0.1"/>
<line x1="375.75" y1="8" x2="375.75" y2="10" stroke="#C4C4C4" stroke-width="0.1"/>
<line x1="389.05" y1="8" x2="389.05" y2="10" stroke="#C4C4C4" stroke-width="0.1"/>
<line x1="391.549" y1="6.09253" x2="390.549" y2="6.07126" stroke="#C4C4C4" stroke-width="0.1"/>
<line x1="403.999" y1="17.55" x2="402.999" y2="17.5287" stroke="#C4C4C4" stroke-width="0.1"/>
<line x1="403.999" y1="18.05" x2="402.999" y2="18.0287" stroke="#C4C4C4" stroke-width="0.1"/>
<line x1="403.999" y1="17.0713" x2="402.999" y2="17.05" stroke="#C4C4C4" stroke-width="0.1"/>
<line x1="391.549" y1="5.07126" x2="390.549" y2="5.04998" stroke="#C4C4C4" stroke-width="0.1"/>
<line x1="391.549" y1="5.54999" x2="390.549" y2="5.52871" stroke="#C4C4C4" stroke-width="0.1"/>
<line x1="391.549" y1="5.54999" x2="390.549" y2="5.52871" stroke="#C4C4C4" stroke-width="0.1"/>
<line x1="386.499" y1="5.07126" x2="385.499" y2="5.04998" stroke="#C4C4C4" stroke-width="0.1"/>
<line x1="386.499" y1="5.54999" x2="385.499" y2="5.52871" stroke="#C4C4C4" stroke-width="0.1"/>
<line x1="386.499" y1="6.04999" x2="385.499" y2="6.02871" stroke="#C4C4C4" stroke-width="0.1"/>
<line x1="370.55" y1="9.10001" x2="370.55" y2="11" stroke="#C4C4C4" stroke-width="0.1"/>
<line x1="368.6" y1="20.5" x2="368.6" y2="22.56" stroke="#C4C4C4" stroke-width="0.1"/>
<line x1="370.25" y1="20.1" x2="370.25" y2="22.7" stroke="#C4C4C4" stroke-width="0.1"/>
<line x1="368.601" y1="21.0455" x2="370.479" y2="24.2986" stroke="#C4C4C4" stroke-width="0.1"/>
<line x1="368.635" y1="20.5606" x2="369.372" y2="22.9947" stroke="#C4C4C4" stroke-width="0.1"/>
<line x1="368.593" y1="20.5597" x2="370.551" y2="21.1002" stroke="#C4C4C4" stroke-width="0.1"/>
<line x1="368.614" y1="21.0627" x2="370.417" y2="21.1347" stroke="#C4C4C4" stroke-width="0.1"/>
<line x1="391.05" y1="5" x2="391.05" y2="9" stroke="#C4C4C4" stroke-width="0.1"/>
<line x1="385.95" y1="9.04001" x2="385.95" y2="5.00001" stroke="#C4C4C4" stroke-width="0.1"/>
<line x1="407.45" y1="21.04" x2="407.45" y2="17" stroke="#C4C4C4" stroke-width="0.1"/>
<line x1="403.45" y1="21.04" x2="403.45" y2="17" stroke="#C4C4C4" stroke-width="0.1"/>
<line x1="383.45" y1="9.04001" x2="383.45" y2="5.00001" stroke="#C4C4C4" stroke-width="0.1"/>
<line x1="380.45" y1="9.04001" x2="380.45" y2="5.00001" stroke="#C4C4C4" stroke-width="0.1"/>
<line x1="377.95" y1="9" x2="377.95" y2="7" stroke="#C4C4C4" stroke-width="0.1"/>
<path d="M394.5 17H398.5L398 20H394L394.5 17Z" fill="#C4C4C4"/>
<circle r="0.25" transform="matrix(1 0 0 -1 372.25 7.05)" fill="#C4C4C4"/>
<circle r="0.25" transform="matrix(1 0 0 -1 378.15 7.45)" fill="#C4C4C4"/>
<circle r="0.25" transform="matrix(1 0 0 -1 378.15 7.45)" fill="#C4C4C4"/>
<circle r="0.25" transform="matrix(1 0 0 -1 383.25 5.60001)" fill="#C4C4C4"/>
<circle r="0.25" transform="matrix(1 0 0 -1 407.25 17.25)" fill="#C4C4C4"/>
<circle r="0.25" transform="matrix(1 0 0 -1 407.65 18.25)" fill="#C4C4C4"/>
<line x1="131.108" y1="23.9367" x2="178.108" y2="103.937" stroke="#7C7C7C" stroke-width="0.25"/>
<path fill-rule="evenodd" clip-rule="evenodd" d="M185 106L71.9998 35L72.1328 34.7883L185.133 105.788L185 106Z" fill="#D5D0D0"/>
<path fill-rule="evenodd" clip-rule="evenodd" d="M220 96L74.9998 28L75.106 27.7737L220.106 95.7737L220 96Z" fill="#D5D0D0"/>
<path fill-rule="evenodd" clip-rule="evenodd" d="M219 97L74 28L74.1074 27.7743L219.107 96.7743L219 97Z" fill="#D5D0D0"/>
<path fill-rule="evenodd" clip-rule="evenodd" d="M219 98L74.9999 29L75.1079 28.7745L219.108 97.7745L219 98Z" fill="#D5D0D0"/>
<path fill-rule="evenodd" clip-rule="evenodd" d="M218 99L74.0001 29L74.1094 28.7752L218.109 98.7752L218 99Z" fill="#D5D0D0"/>
<path fill-rule="evenodd" clip-rule="evenodd" d="M217 100L72.9998 29L73.1104 28.7758L217.11 99.7758L217 100Z" fill="#D5D0D0"/>
<path fill-rule="evenodd" clip-rule="evenodd" d="M209 98L73.9998 30L74.1123 29.7767L209.112 97.7767L209 98Z" fill="#D5D0D0"/>
<path fill-rule="evenodd" clip-rule="evenodd" d="M208 99L74.0001 31L74.1133 30.7771L208.113 98.7771L208 99Z" fill="#D5D0D0"/>
<path fill-rule="evenodd" clip-rule="evenodd" d="M208 99L74.0001 31L74.1133 30.7771L208.113 98.7771L208 99Z" fill="#D5D0D0"/>
<path fill-rule="evenodd" clip-rule="evenodd" d="M207 100L74 32L74.1138 31.7774L207.114 99.7774L207 100Z" fill="#D5D0D0"/>
<path fill-rule="evenodd" clip-rule="evenodd" d="M204 103L74.0001 33L74.1187 32.7799L204.119 102.78L204 103Z" fill="#D5D0D0"/>
<path fill-rule="evenodd" clip-rule="evenodd" d="M204 105L73.9998 34L74.1196 33.7806L204.12 104.781L204 105Z" fill="#D5D0D0"/>
<path fill-rule="evenodd" clip-rule="evenodd" d="M200 105L73.0001 34L73.1221 33.7818L200.122 104.782L200 105Z" fill="#D5D0D0"/>
<path fill-rule="evenodd" clip-rule="evenodd" d="M192 104L73.9998 35L74.126 34.7842L192.126 103.784L192 104Z" fill="#D5D0D0"/>
<path fill-rule="evenodd" clip-rule="evenodd" d="M188 105L72.9999 35L73.1299 34.7865L188.13 104.786L188 105Z" fill="#D5D0D0"/>
<path fill-rule="evenodd" clip-rule="evenodd" d="M206 101L73.0001 32L73.1152 31.7781L206.115 100.778L206 101Z" fill="#D5D0D0"/>
<line x1="138.092" y1="9.91569" x2="212.092" y2="90.9157" stroke="#7C7C7C" stroke-width="0.25"/>
<line x1="133.1" y1="17.9248" x2="197.1" y2="102.925" stroke="#7C7C7C" stroke-width="0.25"/>
<line x1="129.105" y1="19.9327" x2="184.105" y2="105.933" stroke="#7C7C7C" stroke-width="0.25"/>
<line x1="130.103" y1="19.9295" x2="188.103" y2="104.93" stroke="#7C7C7C" stroke-width="0.25"/>
<line x1="131.102" y1="18.9282" x2="192.102" y2="105.928" stroke="#7C7C7C" stroke-width="0.25"/>
<line x1="132.102" y1="17.9275" x2="194.102" y2="104.927" stroke="#7C7C7C" stroke-width="0.25"/>
<line x1="131.099" y1="12.9239" x2="197.099" y2="98.9239" stroke="#7C7C7C" stroke-width="0.25"/>
<line x1="133.098" y1="13.9225" x2="201.098" y2="99.9225" stroke="#7C7C7C" stroke-width="0.25"/>
<line x1="133.097" y1="11.9212" x2="202.097" y2="96.9212" stroke="#7C7C7C" stroke-width="0.25"/>
<line x1="134.096" y1="11.9201" x2="203.096" y2="94.9201" stroke="#7C7C7C" stroke-width="0.25"/>
<line x1="134.095" y1="10.9193" x2="205.095" y2="94.9193" stroke="#7C7C7C" stroke-width="0.25"/>
<line x1="136.094" y1="11.9182" x2="207.094" y2="93.9182" stroke="#7C7C7C" stroke-width="0.25"/>
<line x1="136.093" y1="10.9169" x2="209.093" y2="92.9169" stroke="#7C7C7C" stroke-width="0.25"/>
<line x1="137.092" y1="10.9157" x2="211.092" y2="91.9157" stroke="#7C7C7C" stroke-width="0.25"/>
<line x1="129.036" y1="14.1197" x2="-10.9641" y2="56.1197" stroke="#7C7C7C" stroke-width="0.25"/>
<line x1="127.039" y1="16.1188" x2="-10.9612" y2="61.1188" stroke="#7C7C7C" stroke-width="0.25"/>
<line x1="127.042" y1="17.1177" x2="-9.95791" y2="66.1177" stroke="#7C7C7C" stroke-width="0.25"/>
<line x1="127.046" y1="18.1162" x2="-8.95387" y2="72.1162" stroke="#7C7C7C" stroke-width="0.25"/>
<line x1="127.049" y1="19.115" x2="-8.95096" y2="77.115" stroke="#7C7C7C" stroke-width="0.25"/>
<line x1="127.053" y1="20.1134" x2="-8.94745" y2="83.1134" stroke="#7C7C7C" stroke-width="0.25"/>
<line x1="129.023" y1="5.12291" x2="-5.97724" y2="30.1229" stroke="#7C7C7C" stroke-width="0.25"/>
<line x1="129.023" y1="6.12291" x2="-5.97724" y2="31.1229" stroke="#7C7C7C" stroke-width="0.25"/>
<line x1="129.024" y1="7.12274" x2="-5.97636" y2="33.1227" stroke="#7C7C7C" stroke-width="0.25"/>
<line x1="129.025" y1="8.12243" x2="-6.9748" y2="36.1224" stroke="#7C7C7C" stroke-width="0.25"/>
<line x1="129.027" y1="9.12211" x2="-7.97327" y2="39.1221" stroke="#7C7C7C" stroke-width="0.25"/>
<line x1="129.027" y1="9.12211" x2="-7.97327" y2="39.1221" stroke="#7C7C7C" stroke-width="0.25"/>
<line x1="129.029" y1="10.1216" x2="-8.97093" y2="43.1216" stroke="#7C7C7C" stroke-width="0.25"/>
<line x1="129.03" y1="11.1213" x2="-7.9699" y2="45.1213" stroke="#7C7C7C" stroke-width="0.25"/>
<line x1="129.032" y1="12.121" x2="-8.96845" y2="48.121" stroke="#7C7C7C" stroke-width="0.25"/>
<line x1="129.034" y1="13.1204" x2="-9.96623" y2="52.1204" stroke="#7C7C7C" stroke-width="0.25"/>
<path d="M428 72.6104C441.5 63.6104 475 51.5104 509 73.1104" stroke="#C4C4C4"/>
<path d="M428 71C441.5 62 475 49.9 509 71.5" stroke="#C4C4C4"/>
<path d="M66 26.5L69.5 38L81 76.5H88.5L75.5 38V35.5V26.5L69.5 23L66 26.5Z" fill="#C4C4C4"/>
<path d="M110 69L124 23V20.5L128.5 2.5H132L133 0L136.5 1L138.5 2L137.5 3.5L139.5 6L133 24.5L131.5 25L117.5 71L110 69Z" fill="#C4C4C4"/>
<path d="M0 89H2.5L3 90H5L5.5 89.5H10.5L11 90H13L13.5 89.5H18.5L19 90H21L21.5 89.5L25 89V88V87.5L26 87V85.5L27 85V83.5L28 83V81.5L29 81V80L28 79.5V77.5L29 77V79L30 79.5V80H32H33V76L31.5 75.5V73H32L32.5 72H33V76V80H36V76L34.5 75.5V73H35L35.5 72H36V80H39V76L37.5 75.5V73H38L38.5 72H39V80H40V82L44.5 81.5L45 81L47 80.5L49 80L50 79.5V79L51 78.5L52 78L53 77.5V77L54 76.5V75.5L55 74.5V46H56V38H57V37H58V38H59V37H60V38H61V37H62V38H63V37H64V42H65H66V55V70L67 70.5V74L79 74.5V75H88V74.5L89 74V73.5H90V74H106V63L107 63.5H108V63H109L110 62.5V62L112 61.5V61H114V61.5L116 62V62.5L119 63V71H132V78.6237L133 79V79.5L134 80L135 80.2239V85.8149L139 86V85.5L142 85V84.5L146 84V83.5L161.5 83L168 83.5V84L169 85V86V87L170 87.5V90L171 90.5V93L172 93.5V95H175L177 95.5V97L178 97.5V98H180L183 99L184 100L185 100.5V101.5L186 102H190.25H194.5L194 101L189 99V98H189.5V96H189V95L201 87L202.5 81.5L207 77.5L205.5 84L216 77L236 82L283.5 94.5V95H283V97.5H283.5V98.5L267.5 101.5L275.5 101L279 100H281V101H283V100H285V101H288.5V94.5V66L288 65V64.5L297 63.5L303.5 59L311 62L321 60L323.5 63V77L325.5 78V72L326 72.5V78L328 79V73.5L328.5 74V79L330 80V68.5L331 67L332.5 71V80L334 81V86H336V85.5H337V86H340V85H342V86L345 88H379L379.5 80.25L379 72.5H376V73L377.5 74L377 75.5L375.5 75L375 76L375.5 78L374.5 79L373 78L372 78.5V80.5L370.5 81L369.5 79.5H368L367.5 81H366V79.5L364.5 79L363.5 80L362 79L362.5 78L361.5 77L360 77.5L359 76.5L360 75L359.5 73.5H357.5L357 72L359 71.5V70L357 69L357.5 67.5H359.5L360 66.5L359 65L360 64L361.5 64.5L362.5 63.5L362 62L363.5 61L364.5 62.5L365.5 62V60H367.5L368 61.5L369.5 62L370 60.5L372 61V62.5L373 63L374.5 62L375.5 63L374.5 65L375.5 66L377 65.5L378 67L376.5 68V69V70H367.5H376H381H393H409V72.5H399H382L381.5 80.25L382 88H399L399.5 80.25L399 72.5H402L401.5 80.25L402 88H428V70L427.5 68.5H428V64L427.5 63.5H428.5H431V61H435L436 59.5L437 59L437.5 53V59L438.5 59.5L439.5 61H440L442 63L442.5 64L444 67L454 66H459.5L461 64.5H461.25L461.5 60L461.75 64.5H462L463 66H467.5V64L470 62.5L470.5 62L471 62.5L473 63.5V64L472.5 64.5V65.5L478 66L479 65H479.25L479.5 61.5L479.75 65H480V66L483 67L491 68.5L496 65L497.5 63L497.75 62L498 57.5L498.25 62L499 62.5H500L500.5 63V63.5L501.5 64L506 64.5V66.5H509V67.5V71H510V71.5L509 72V73.5V83V88H538V107H390.5H334H48H0V89Z" fill="#444444"/>
<path d="M207 77.5L213 79L205.5 84L207 77.5Z" fill="#C4C4C4"/>
<circle cx="368" cy="71" r="5" fill="#C4C4C4"/>
<circle cx="367.5" cy="70.5" r="8.5" fill="#444444"/>
<path d="M376.5 69H399L399.5 68.5H400L400.5 68H401H402L403 67.5H404L404.5 66.5H405H405.5V67H405V68H405.5V67.5V66V64.5L406 63.5H406.5H407V65V68V68.5H408H408.5V68H409V68.5V69V70H408V69.5H400H399H376.5V69Z" fill="#444444"/>
<path d="M323.5 66L324 67L329 66.5V62L329.5 61H330L330.5 62V66.5H331L333 70.5V80.3517L332.5 80V71L331 67L330 68.5V80L328.5 79V74L328 73.5V79L326 78V72.5L325.5 72V78L323.5 77V66Z" fill="#C4C4C4"/>
<circle cx="431" cy="63" r="2" fill="#444444"/>
<ellipse cx="461.5" cy="66.5" rx="2.5" ry="2" fill="#444444"/>
<ellipse cx="479.5" cy="67.25" rx="2.5" ry="2" fill="#444444"/>
<circle cx="440" cy="63" r="2" fill="#444444"/>
<circle cx="498" cy="64.5" r="2" fill="#444444"/>
<circle cx="506" cy="66.5" r="2" fill="#444444"/>
<line x1="33.125" y1="72" x2="33.125" y2="80" stroke="#444444" stroke-width="0.25"/>
<line x1="33.125" y1="72" x2="33.125" y2="80" stroke="#444444" stroke-width="0.25"/>
<line x1="36.125" y1="72" x2="36.125" y2="80" stroke="#444444" stroke-width="0.25"/>
<line x1="39.125" y1="72" x2="39.125" y2="80" stroke="#444444" stroke-width="0.25"/>
<path d="M453 90V84.274C454.478 82.0224 456.259 83.2329 457 84.274V90H453Z" fill="#C4C4C4"/>
<path d="M448 90V84.274C449.478 82.0224 451.259 83.2329 452 84.274V90H448Z" fill="#C4C4C4"/>
<path d="M443 90V84.274C444.478 82.0224 446.259 83.2329 447 84.274V90H443Z" fill="#C4C4C4"/>
<path d="M468 76V71.91C469.478 70.3017 471.259 71.1663 472 71.91V76H468Z" fill="#C4C4C4"/>
<path d="M468 90V84.274C469.478 82.0224 471.259 83.2329 472 84.274V90H468Z" fill="#C4C4C4"/>
<path d="M482 90V84.274C483.478 82.0224 485.259 83.2329 486 84.274V90H482Z" fill="#C4C4C4"/>
<path d="M487 90V84.274C488.478 82.0224 490.259 83.2329 491 84.274V90H487Z" fill="#C4C4C4"/>
<path d="M492 90V84.274C493.478 82.0224 495.259 83.2329 496 84.274V90H492Z" fill="#C4C4C4"/>
<path d="M473 76V71.91C474.108 70.3017 475.444 71.1663 476 71.91V76H473Z" fill="#C4C4C4"/>
<path d="M479 75V71.728C479.739 70.4414 480.63 71.1331 481 71.728V75H479Z" fill="#C4C4C4"/>
<path d="M483 76V72.728C483.369 71.4414 483.815 72.1331 484 72.728V76H483Z" fill="#C4C4C4"/>
<path d="M493 81V77.728C493.369 76.4414 493.815 77.1331 494 77.728V81H493Z" fill="#C4C4C4"/>
<path d="M491 81V77.728C491.369 76.4414 491.815 77.1331 492 77.728V81H491Z" fill="#C4C4C4"/>
<path d="M489 81V77.728C489.369 76.4414 489.815 77.1331 490 77.728V81H489Z" fill="#C4C4C4"/>
<path d="M487 81V77.728C487.369 76.4414 487.815 77.1331 488 77.728V81H487Z" fill="#C4C4C4"/>
<path d="M485 81V77.728C485.369 76.4414 485.815 77.1331 486 77.728V81H485Z" fill="#C4C4C4"/>
<path d="M483 81V77.728C483.369 76.4414 483.815 77.1331 484 77.728V81H483Z" fill="#C4C4C4"/>
<path d="M493 76V72.728C493.369 71.4414 493.815 72.1331 494 72.728V76H493Z" fill="#C4C4C4"/>
<path d="M498 76V72.728C498.369 71.4414 498.815 72.1331 499 72.728V76H498Z" fill="#C4C4C4"/>
<path d="M438 76V72.728C438.369 71.4414 438.815 72.1331 439 72.728V76H438Z" fill="#C4C4C4"/>
<path d="M503 76V72.728C503.369 71.4414 503.815 72.1331 504 72.728V76H503Z" fill="#C4C4C4"/>
<path d="M433 76V72.728C433.369 71.4414 433.815 72.1331 434 72.728V76H433Z" fill="#C4C4C4"/>
<path d="M500 76V72.728C500.739 71.4414 501.63 72.1331 502 72.728V76H500Z" fill="#C4C4C4"/>
<path d="M435 76V72.728C435.739 71.4414 436.63 72.1331 437 72.728V76H435Z" fill="#C4C4C4"/>
<path d="M447 76V72.728C447.369 71.4414 447.815 72.1331 448 72.728V76H447Z" fill="#C4C4C4"/>
<path d="M445 76V72.728C445.369 71.4414 445.815 72.1331 446 72.728V76H445Z" fill="#C4C4C4"/>
<path d="M453 81V77.728C453.369 76.4414 453.815 77.1331 454 77.728V81H453Z" fill="#C4C4C4"/>
<path d="M455 81V77.728C455.369 76.4414 455.815 77.1331 456 77.728V81H455Z" fill="#C4C4C4"/>
<path d="M451 81V77.728C451.369 76.4414 451.815 77.1331 452 77.728V81H451Z" fill="#C4C4C4"/>
<path d="M449 81V77.728C449.369 76.4414 449.815 77.1331 450 77.728V81H449Z" fill="#C4C4C4"/>
<path d="M447 81V77.728C447.369 76.4414 447.815 77.1331 448 77.728V81H447Z" fill="#C4C4C4"/>
<path d="M445 81V77.728C445.369 76.4414 445.815 77.1331 446 77.728V81H445Z" fill="#C4C4C4"/>
<path d="M433 87V83.728C433.369 82.4414 433.815 83.1331 434 83.728V87H433Z" fill="#C4C4C4"/>
<path d="M438 87V83.728C438.369 82.4414 438.815 83.1331 439 83.728V87H438Z" fill="#C4C4C4"/>
<path d="M498 87V83.728C498.369 82.4414 498.815 83.1331 499 83.728V87H498Z" fill="#C4C4C4"/>
<path d="M503 87V83.728C503.369 82.4414 503.815 83.1331 504 83.728V87H503Z" fill="#C4C4C4"/>
<path d="M449 76V72.728C449.369 71.4414 449.815 72.1331 450 72.728V76H449Z" fill="#C4C4C4"/>
<path d="M451 76V72.728C451.369 71.4414 451.815 72.1331 452 72.728V76H451Z" fill="#C4C4C4"/>
<path d="M453 76V72.728C453.369 71.4414 453.815 72.1331 454 72.728V76H453Z" fill="#C4C4C4"/>
<path d="M455 76V72.728C455.369 71.4414 455.815 72.1331 456 72.728V76H455Z" fill="#C4C4C4"/>
<path d="M491 76V72.728C491.369 71.4414 491.815 72.1331 492 72.728V76H491Z" fill="#C4C4C4"/>
<path d="M489 76V72.728C489.369 71.4414 489.815 72.1331 490 72.728V76H489Z" fill="#C4C4C4"/>
<path d="M487 76V72.728C487.369 71.4414 487.815 72.1331 488 72.728V76H487Z" fill="#C4C4C4"/>
<path d="M485 76V72.728C485.369 71.4414 485.815 72.1331 486 72.728V76H485Z" fill="#C4C4C4"/>
<path d="M459 75V71.728C459.739 70.4414 460.63 71.1331 461 71.728V75H459Z" fill="#C4C4C4"/>
<path d="M435 67V63.4166C436 62.6193 436.5 63.1669 437 63.4166V67H435Z" fill="#C4C4C4"/>
<path d="M500 69V65.4166C501 64.6193 501.5 65.1669 502 65.4166V69H500Z" fill="#C4C4C4"/>
<path d="M438 67V64C439.181 64 439.5 64.3591 440 64.5681V67H438Z" fill="#C4C4C4"/>
<path d="M503 69V66C504.181 66 504.5 66.3591 505 66.5681V69H503Z" fill="#C4C4C4"/>
<path d="M434 67V64C432.819 64 432.5 64.3591 432 64.5681V67H434Z" fill="#C4C4C4"/>
<path d="M499 69V66C497.819 66 497.5 66.3591 497 66.5681V69H499Z" fill="#C4C4C4"/>
<path d="M473 90V84.274C474.108 82.0224 475.444 83.2329 476 84.274V90H473Z" fill="#C4C4C4"/>
<path d="M464 90V84.274C465.108 82.0224 466.444 83.2329 467 84.274V90H464Z" fill="#C4C4C4"/>
<path d="M464 76V71.91C465.108 70.3017 466.444 71.1663 467 71.91V76H464Z" fill="#C4C4C4"/>
<circle cx="304.5" cy="70.5" r="3.5" fill="#C4C4C4"/>
<circle cx="470" cy="66" r="1" fill="#C4C4C4"/>
<circle cx="367.5" cy="70.5" r="5.5" fill="#C4C4C4"/>
<path d="M298 78L298.5 77.5L299 78H299.5L300 77.5L300.5 78V83H298V78Z" fill="#C4C4C4"/>
<path d="M301.5 77.5L302 77L302.5 77.5H303L303.5 77L304 77.5V82.5H301.5V77.5Z" fill="#C4C4C4"/>
<path d="M305 77.5L305.5 77L306 77.5H306.5L307 77L307.5 77.5V82.5H305V77.5Z" fill="#C4C4C4"/>
<path d="M308 77L308.5 76.5L309 77H309.5L310 76.5L310.5 77V82H308V77Z" fill="#C4C4C4"/>
<path d="M292.5 77H293V82.5H292.5V77Z" fill="#C4C4C4"/>
<path d="M316 75H316.5V80.5H316V75Z" fill="#C4C4C4"/>
<path d="M316.5 88H317V94H316.5V88Z" fill="#C4C4C4"/>
<path d="M293 89H292.5V95H293V89Z" fill="#C4C4C4"/>
<path d="M299.5 95V94V91L300 89.5L301 88L302.5 86.5L304 86L305.5 86.5L307 87.5L308 88.5L309 90L309.5 92V93V95V98V101H299.5V95Z" fill="#C4C4C4"/>
<circle cx="125.5" cy="75.5" r="1.5" fill="#C4C4C4"/>
<path d="M72 86H67V81.5224C67.1852 79.6034 67.7511 76.5973 69.5 77.0448C72 77.6845 71.8148 79.8166 72 80.8827V86Z" fill="#C4C4C4"/>
<path d="M108 87H120V80.5324C119.556 77.7605 118.197 73.4183 114 74.0647C108 74.9887 108.444 78.0685 108 79.6084V87Z" fill="#747474"/>
<path d="M109 87H119V81.5274C118.63 79.182 117.498 75.5078 114 76.0548C109 76.8366 109.37 79.4426 109 80.7456V87Z" fill="#9A9898"/>
<path d="M109 87H119V81.5274C118.63 79.182 117.498 75.5078 114 76.0548C109 76.8366 109.37 79.4426 109 80.7456V87Z" fill="#9A9898"/>
<path d="M109 87H119V81.5274C118.63 79.182 117.498 75.5078 114 76.0548C109 76.8366 109.37 79.4426 109 80.7456V87Z" fill="#9A9898"/>
<path d="M109 87H118V82.5224C117.667 80.6034 116.648 77.5973 113.5 78.0448C109 78.6845 109.333 80.8166 109 81.8827V87Z" fill="#9A9898"/>
<path d="M109 87H118V82.5224C117.667 80.6034 116.648 77.5973 113.5 78.0448C109 78.6845 109.333 80.8166 109 81.8827V87Z" fill="#9A9898"/>
<path d="M109 87H118V82.5224C117.667 80.6034 116.648 77.5973 113.5 78.0448C109 78.6845 109.333 80.8166 109 81.8827V87Z" fill="#BDB9B9"/>
<path d="M80 86H75V81.5224C75.1852 79.6034 75.7511 76.5973 77.5 77.0448C80 77.6845 79.8148 79.8166 80 80.8827V86Z" fill="#C4C4C4"/>
<path d="M88 86H83V81.5224C83.1852 79.6034 83.7511 76.5973 85.5 77.0448C88 77.6845 87.8148 79.8166 88 80.8827V86Z" fill="#C4C4C4"/>
<path d="M96 86H91V81.5224C91.1852 79.6034 91.7511 76.5973 93.5 77.0448C96 77.6845 95.8148 79.8166 96 80.8827V86Z" fill="#C4C4C4"/>
<path d="M104 86H99V81.5224C99.1852 79.6034 99.7511 76.5973 101.5 77.0448C104 77.6845 103.815 79.8166 104 80.8827V86Z" fill="#C4C4C4"/>
<path d="M125.5 75L125.067 74.25H125.933L125.5 75Z" fill="#383838"/>
<path d="M126 75.5L126.75 75.067V75.933L126 75.5Z" fill="#383838"/>
<path d="M125.5 76L125.933 76.75H125.067L125.5 76Z" fill="#383838"/>
<path d="M125 75.5L124.25 75.933V75.067L125 75.5Z" fill="#383838"/>
<path d="M45.5 31.5V81L67 77.5L66.5 33H67.5L68 32H66.5V30.5L66.7724 30H66.5V26L66 25L65.5 25.5V23.5L65 22L64 23V22.5V16.5L63 12L62.5 16.5V15L62 17L60.5 11L59.5 16.5L58.5 11.5L57.5 16L57 14V16L55.5 11L53.5 16L53 14.5L52.5 16L52 12L51 16L50 11L49.5 17L49 15.5L48.5 14.5L48 15.5V22L47 22.5L46 21.5L45.5 23.5V30H44L45.5 31.5Z" fill="#444444"/>
<path d="M64 40.5L62 40V32.5L63 31L64 33V40.5Z" fill="#C4C4C4"/>
<path d="M49 72L50 71.5789V65.2632L49.5 64L49 65.6842V72Z" fill="#C4C4C4"/>
<path d="M57.5 39H55L55.5 30.5L56.5 29L57.5 30.5V39Z" fill="#C4C4C4"/>
<path d="M51 40L49 41V33L50 32L51 33V40Z" fill="#C4C4C4"/>
<path d="M57 57.5H55.5V49.5L56.5 48.5L57 49.5V57.5Z" fill="#C4C4C4"/>
<path d="M64 57.5H63V49.5L63.5 49L64 49.5V57.5Z" fill="#C4C4C4"/>
<path d="M50.5 58H49.5V50L50 49.5L50.5 50V58Z" fill="#C4C4C4"/>
<path d="M56.5 71H55.5V65L56 64L56.5 65V71Z" fill="#C4C4C4"/>
<path d="M64 71.5L63 71V66L63.5 65L64 66V71.5Z" fill="#C4C4C4"/>
<circle cx="56.5" cy="43.5" r="3.45" stroke="#C4C4C4" stroke-width="0.1"/>
<circle cx="56.5" cy="43.5" r="2.45" stroke="#C4C4C4" stroke-width="0.1"/>
<line x1="282.969" y1="95.1212" x2="215.969" y2="78.1212" stroke="black" stroke-width="0.25"/>
<path d="M190 98V96L216 78L283 95V97L216 80L190 98Z" fill="#C4C4C4"/>
<rect x="464" y="77" width="3" height="4" fill="#C4C4C4"/>
<rect x="468" y="77" width="4" height="4" fill="#C4C4C4"/>
<rect x="473" y="77" width="3" height="4" fill="#C4C4C4"/>
<rect x="479" y="77" width="2" height="4" fill="#C4C4C4"/>
<rect x="479" y="85" width="1" height="4" fill="#C4C4C4"/>
<rect x="460" y="85" width="1" height="4" fill="#C4C4C4"/>
<rect x="459" y="77" width="2" height="4" fill="#C4C4C4"/>
<rect x="500" y="77" width="2" height="4" fill="#C4C4C4"/>
<rect x="500" y="77" width="2" height="4" fill="#C4C4C4"/>
<rect x="435" y="77" width="2" height="4" fill="#C4C4C4"/>
<rect x="498" y="77" width="1" height="4" fill="#C4C4C4"/>
<rect x="433" y="77" width="1" height="4" fill="#C4C4C4"/>
<rect x="438" y="77" width="1" height="4" fill="#C4C4C4"/>
<rect x="503" y="77" width="1" height="4" fill="#C4C4C4"/>
<g clip-path="url(#clip1)">
<path fill-rule="evenodd" clip-rule="evenodd" d="M522.445 77.0223C522.426 77.0064 522.369 76.968 522.317 76.937C522.264 76.906 522.211 76.8717 522.198 76.8606C522.185 76.8496 522.132 76.8189 522.081 76.7924C521.95 76.7249 521.818 76.6471 521.717 76.5784C521.697 76.5647 521.661 76.5488 521.638 76.543C521.406 76.4854 521.427 76.1582 521.677 75.9292C521.832 75.7869 521.834 75.7856 521.885 75.7525C521.909 75.737 521.965 75.6898 522.009 75.6476C522.054 75.6053 522.128 75.5428 522.174 75.5086L522.258 75.4465L522.258 75.3502C522.257 75.2261 522.234 75.1936 522.13 75.174C522.088 75.1661 522.039 75.1502 522.02 75.1387C522.002 75.1272 521.965 75.113 521.937 75.1073C521.91 75.1016 521.858 75.0812 521.822 75.062C521.786 75.0428 521.744 75.0271 521.728 75.0271C521.713 75.0271 521.67 75.0131 521.632 74.996C521.595 74.9789 521.537 74.9615 521.505 74.9573C521.473 74.9532 521.429 74.9375 521.407 74.9226C521.386 74.9076 521.363 74.8954 521.357 74.8954C521.281 74.8954 521.228 74.6685 521.291 74.6116C521.306 74.5979 521.322 74.568 521.327 74.5452C521.331 74.5224 521.35 74.4807 521.369 74.4525C521.399 74.4068 521.42 74.3713 521.478 74.276C521.487 74.2604 521.501 74.2437 521.509 74.2387C521.516 74.2338 521.534 74.21 521.547 74.1858C521.58 74.1279 521.64 74.0432 521.662 74.0249C521.672 74.0169 521.699 73.9806 521.723 73.9444C521.746 73.9082 521.781 73.8552 521.8 73.8266C521.824 73.7897 521.834 73.7536 521.834 73.7022C521.833 73.5104 521.751 73.4792 521.209 73.4634C520.883 73.4538 520.824 73.4387 520.824 73.3641C520.824 73.3535 520.811 73.3365 520.794 73.3264C520.659 73.2448 520.679 72.8463 520.826 72.6979C520.872 72.6511 520.985 72.4471 520.985 72.4107C520.985 72.4038 520.997 72.387 521.012 72.3734C521.029 72.3587 521.043 72.3197 521.048 72.2767C521.053 72.2371 521.067 72.1886 521.08 72.1689C521.103 72.1344 521.102 72.1314 521.055 72.0868C520.977 72.0117 520.968 72.0105 520.473 72.0148L520.012 72.0188L519.932 71.9721C519.888 71.9465 519.829 71.9065 519.801 71.8834L519.751 71.8413L519.752 71.6965C519.754 71.5547 519.794 71.406 519.861 71.289C519.871 71.2729 519.89 71.2235 519.904 71.1792C519.941 71.0614 519.987 70.9454 520.003 70.9254C520.047 70.8724 520.078 70.6922 520.052 70.6462L520.025 70.6013L519.851 70.5971C519.725 70.5941 519.659 70.599 519.617 70.6142C519.585 70.6259 519.506 70.6391 519.442 70.6435C519.377 70.6479 519.242 70.6591 519.142 70.6685C518.891 70.6919 518.776 70.6768 518.776 70.6203C518.776 70.6143 518.757 70.5996 518.734 70.5877C518.649 70.5437 518.637 70.2529 518.712 70.0254C518.732 69.9635 518.747 69.8826 518.747 69.8352C518.747 69.7899 518.757 69.6968 518.77 69.6284C518.811 69.414 518.811 69.4188 518.77 69.3583C518.749 69.3276 518.732 69.2978 518.732 69.2922C518.732 69.2153 518.468 69.2409 518.271 69.3368C518.223 69.3604 518.175 69.3797 518.164 69.3797C518.153 69.3797 518.123 69.389 518.098 69.4004C518.073 69.4117 518.027 69.4287 517.997 69.4381C517.967 69.4474 517.942 69.4604 517.942 69.4668C517.942 69.5221 517.721 69.6104 517.627 69.5927C517.447 69.5589 517.311 69.1475 517.414 68.9487C517.478 68.8261 517.451 68.4767 517.367 68.3454C517.279 68.2068 517.075 68.2141 516.924 68.3611C516.893 68.3918 516.849 68.426 516.828 68.4369C516.791 68.4562 516.714 68.5203 516.617 68.6116C516.544 68.6802 516.521 68.6971 516.438 68.7406L516.36 68.7813L516.298 68.7513C516.264 68.7348 516.224 68.7213 516.21 68.7213C516.134 68.7213 516.064 68.6064 516.038 68.436C516.029 68.3797 516.01 68.3007 515.995 68.2604C515.98 68.2202 515.96 68.1379 515.952 68.0776C515.943 68.0172 515.93 67.9448 515.923 67.9166C515.915 67.8885 515.902 67.8272 515.893 67.7806C515.879 67.7051 515.867 67.6856 515.786 67.605L515.696 67.5143H515.535C515.392 67.5143 515.369 67.5179 515.334 67.5455C515.275 67.5922 515.075 67.7728 515.039 67.8116C514.795 68.0801 514.727 68.1193 514.574 68.0771C514.532 68.0652 514.517 68.0518 514.504 68.0125C514.495 67.9852 514.478 67.9549 514.467 67.9453C514.452 67.9333 514.445 67.8981 514.445 67.8349C514.445 67.7791 514.434 67.7142 514.418 67.6721C514.403 67.6336 514.386 67.5693 514.38 67.5293C514.374 67.4893 514.354 67.4268 514.334 67.3904C514.309 67.3439 514.299 67.3005 514.299 67.2437C514.299 67.1994 514.289 67.1467 514.277 67.1266C514.266 67.1065 514.246 67.0703 514.235 67.0461C514.165 66.9009 514.049 66.8852 513.857 66.9947C513.729 67.0676 513.632 67.1565 513.557 67.2694C513.527 67.3156 513.478 67.3787 513.448 67.4096C513.419 67.4408 513.387 67.494 513.377 67.5292C513.347 67.6357 513.247 67.7264 513.159 67.7264C513.043 67.7264 512.678 67.369 512.651 67.2276C512.637 67.1569 512.504 66.9277 512.454 66.8887C512.431 66.8707 512.393 66.841 512.369 66.8229C512.268 66.745 512.071 66.7973 511.979 66.9266C511.929 66.997 511.855 67.1202 511.846 67.1481C511.841 67.1644 511.833 67.1811 511.827 67.1851C511.822 67.1891 511.793 67.2418 511.762 67.3021C511.732 67.3625 511.69 67.4283 511.668 67.4485C511.646 67.4686 511.609 67.5114 511.585 67.5436C511.47 67.6979 511.392 67.6839 511.226 67.4783C511.167 67.4056 511.115 67.346 511.109 67.346C511.103 67.346 511.087 67.3213 511.074 67.2912C511.036 67.2048 510.99 67.1359 510.923 67.063C510.889 67.0259 510.861 66.9891 510.861 66.9811C510.861 66.9617 510.78 66.8803 510.716 66.8346C510.668 66.8006 510.652 66.7978 510.528 66.8007L510.393 66.8038L510.305 66.8875C510.257 66.9335 510.217 66.9784 510.217 66.9872C510.217 66.996 510.201 67.0228 510.181 67.0466C510.085 67.1625 510.071 67.1845 510.07 67.2165C510.07 67.2354 510.058 67.278 510.043 67.3111C510.028 67.3441 510.011 67.4001 510.006 67.4354C509.983 67.5792 509.932 67.6965 509.867 67.7515C509.82 67.7916 509.671 67.7989 509.633 67.763C509.412 67.5534 509.267 67.3988 509.215 67.3166C509.197 67.2883 509.172 67.2562 509.158 67.2453C509.145 67.2343 509.134 67.2189 509.134 67.2109C509.134 67.1595 508.891 66.951 508.831 66.951C508.799 66.951 508.663 67.0247 508.599 67.0764C508.526 67.1352 508.513 67.168 508.491 67.3387C508.482 67.4111 508.466 67.5031 508.455 67.5431C508.44 67.6028 508.44 67.6289 508.456 67.6894C508.467 67.7299 508.476 67.8124 508.476 67.8727C508.476 68.1301 508.509 68.7362 508.528 68.8237C508.54 68.876 508.555 68.9969 508.563 69.0923C508.572 69.2031 508.585 69.2783 508.6 69.3003C508.612 69.3193 508.622 69.3498 508.623 69.3682C508.623 69.4139 508.654 69.5214 508.716 69.6869C508.745 69.7634 508.772 69.849 508.777 69.8771C508.782 69.9053 508.796 69.9437 508.808 69.9625C508.82 69.9813 508.841 70.0307 508.856 70.0722C508.871 70.1138 508.9 70.1939 508.922 70.2502C508.944 70.3065 508.971 70.3822 508.983 70.4185C508.995 70.4547 509.013 70.504 509.024 70.5282C509.035 70.5523 509.051 70.599 509.059 70.6319C509.068 70.6648 509.089 70.7036 509.105 70.7183C509.121 70.7329 509.134 70.7529 509.134 70.7628C509.134 70.7726 509.145 70.7892 509.157 70.7996C509.17 70.81 509.19 70.8415 509.201 70.8696C509.213 70.8977 509.252 70.9655 509.288 71.0202C509.324 71.075 509.354 71.1263 509.354 71.1344C509.354 71.1424 509.367 71.156 509.383 71.1646C509.399 71.1732 509.412 71.1883 509.412 71.1981C509.413 71.2078 509.429 71.2356 509.449 71.2597C509.469 71.2839 509.496 71.3234 509.508 71.3475C509.542 71.4144 509.588 71.4872 509.668 71.6023C509.768 71.7451 509.819 71.8235 509.838 71.8669C509.862 71.9201 509.867 71.9282 509.935 72.018C509.97 72.0629 509.998 72.1051 509.998 72.1116C509.998 72.1181 510.014 72.1477 510.034 72.1773C510.054 72.2069 510.071 72.241 510.071 72.253C510.071 72.265 510.082 72.2835 510.096 72.2941C510.129 72.3187 510.18 72.3861 510.216 72.454C510.232 72.4831 510.254 72.5104 510.265 72.5145C510.275 72.5186 510.303 72.5507 510.327 72.5858C510.35 72.6209 510.399 72.6803 510.436 72.7177C510.472 72.7551 510.519 72.8111 510.539 72.842C510.559 72.8729 510.622 72.9443 510.679 73.0007C510.736 73.0571 510.79 73.1213 510.799 73.1434C510.809 73.1655 510.823 73.1836 510.831 73.1836C510.839 73.1836 510.846 73.193 510.846 73.2045C510.846 73.2159 510.882 73.2562 510.927 73.294C510.971 73.3318 511.007 73.3698 511.007 73.3784C511.007 73.3871 511.074 73.4636 511.156 73.5486C511.238 73.6335 511.371 73.772 511.452 73.8563C511.533 73.9405 511.628 74.0346 511.663 74.0653C511.749 74.1404 511.852 74.2685 511.864 74.3145C511.869 74.3351 511.886 74.3633 511.901 74.3772C511.989 74.4571 511.871 74.7076 511.722 74.7571C511.603 74.7967 511.178 74.7633 511.057 74.7047C511.025 74.6889 510.979 74.6759 510.955 74.6759C510.931 74.6759 510.89 74.6626 510.864 74.6463C510.69 74.5402 510.421 74.6271 510.342 74.8147C510.316 74.8791 510.343 75.0979 510.387 75.1692C510.398 75.187 510.414 75.2482 510.422 75.3052C510.43 75.3622 510.451 75.4365 510.468 75.4703C510.537 75.6048 510.523 75.782 510.44 75.8339L510.385 75.8683L509.749 75.8757L509.112 75.883L509.065 75.9171C508.942 76.0044 508.934 76.2007 509.048 76.3228C509.063 76.3395 509.076 76.3576 509.076 76.3631C509.076 76.3733 509.087 76.3872 509.164 76.474C509.188 76.5014 509.208 76.5317 509.208 76.5414C509.208 76.5632 509.349 76.7543 509.383 76.7781C509.396 76.7876 509.416 76.8237 509.426 76.8583C509.436 76.8929 509.457 76.937 509.473 76.9564C509.576 77.088 509.319 77.2734 508.962 77.3245C508.912 77.3318 508.849 77.3476 508.823 77.3596C508.797 77.3717 508.745 77.3884 508.707 77.3967C508.669 77.405 508.613 77.4212 508.582 77.4326C508.552 77.4441 508.475 77.4607 508.411 77.4696C508.291 77.4862 508.269 77.498 508.18 77.5926C508.081 77.6977 508.249 77.9389 508.513 78.0696C508.622 78.1233 508.74 78.1988 508.757 78.2252C508.763 78.234 508.814 78.2702 508.87 78.3056C508.997 78.3856 509.003 78.3989 509.003 78.6038C509.003 78.835 509.005 78.8321 508.789 78.8901C508.725 78.907 508.653 78.9336 508.628 78.9491C508.603 78.9646 508.569 78.9773 508.553 78.9773C508.537 78.9773 508.508 78.9893 508.489 79.0039C508.47 79.0186 508.432 79.0396 508.404 79.0507C508.302 79.0917 508.097 79.2705 508.049 79.3613C508.03 79.3955 508.01 79.4275 508.003 79.4325C507.996 79.4374 508.001 79.4452 508.012 79.4498C508.024 79.4543 508.045 79.4901 508.058 79.5292C508.075 79.5805 508.095 79.6081 508.129 79.6283C508.155 79.6436 508.183 79.6616 508.191 79.6681C508.237 79.7056 508.321 79.7537 508.356 79.7622C508.378 79.7675 508.429 79.79 508.469 79.8122C508.509 79.8343 508.57 79.857 508.605 79.8626C508.64 79.8682 508.686 79.882 508.708 79.8932C508.729 79.9044 508.764 79.9136 508.785 79.9136C508.806 79.9137 508.838 79.9269 508.856 79.943C508.875 79.9591 508.905 79.9722 508.924 79.9722C509.045 79.9722 509.142 80.074 509.13 80.1891C509.117 80.3083 508.999 80.5399 508.888 80.6621C508.842 80.7132 508.784 80.7846 508.759 80.8208C508.658 80.971 508.637 81.0063 508.637 81.0264C508.637 81.0381 508.623 81.0699 508.607 81.0972C508.541 81.2045 508.55 81.3902 508.625 81.4646C508.711 81.5513 508.727 81.5562 508.956 81.5694C509.713 81.6127 509.798 81.6447 509.733 81.8597C509.725 81.8878 509.713 81.9569 509.706 82.0132C509.699 82.0782 509.674 82.161 509.64 82.24C509.61 82.3084 509.579 82.3897 509.572 82.4207C509.564 82.4517 509.548 82.4962 509.536 82.5196C509.417 82.7494 509.517 83.044 509.722 83.0686C509.773 83.0748 509.82 83.0782 509.827 83.0763C509.834 83.0744 509.9 83.0671 509.974 83.06C510.047 83.053 510.127 83.0368 510.151 83.0241C510.175 83.0113 510.208 83.0009 510.224 83.0008C510.241 83.0007 510.277 82.9862 510.305 82.9685C510.55 82.8141 510.751 82.8295 510.819 83.0081C510.858 83.1082 510.862 83.3118 510.827 83.3768C510.798 83.431 510.793 83.6651 510.819 83.7762C510.827 83.8124 510.84 83.901 510.848 83.9731C510.86 84.0926 510.901 84.2 510.935 84.2004C510.939 84.2004 510.958 84.2145 510.977 84.2316C511.068 84.317 511.231 84.3095 511.332 84.2152C511.374 84.175 511.415 84.1421 511.422 84.1421C511.428 84.142 511.469 84.1074 511.511 84.0651C511.632 83.9447 511.761 83.8495 511.804 83.8489C511.82 83.8486 511.847 83.8387 511.862 83.8269C511.966 83.7484 512.21 83.8223 512.225 83.9369C512.23 83.9687 512.247 84.0122 512.264 84.0337C512.281 84.0552 512.295 84.0928 512.295 84.1173C512.295 84.1418 512.301 84.182 512.309 84.2067C512.316 84.2315 512.336 84.3249 512.352 84.4144C512.373 84.5313 512.393 84.5991 512.426 84.6558C512.45 84.6991 512.483 84.7598 512.498 84.7908C512.603 85.0072 512.782 84.9936 513.012 84.7516C513.203 84.5503 513.239 84.5143 513.275 84.4898C513.312 84.4641 513.472 84.3439 513.506 84.3165C513.64 84.2054 513.818 84.3184 513.852 84.537C513.858 84.5732 513.88 84.6282 513.901 84.6593C513.922 84.6904 513.946 84.7277 513.955 84.7421C513.963 84.7566 513.99 84.7979 514.016 84.8338C514.041 84.8697 514.07 84.9245 514.08 84.9557C514.118 85.071 514.189 85.1515 514.255 85.1515C514.269 85.1515 514.289 85.1613 514.299 85.1734C514.36 85.2466 514.723 85.0607 514.723 84.9565C514.723 84.9483 514.744 84.8983 514.769 84.8454C514.794 84.7924 514.835 84.7063 514.86 84.654C514.884 84.6017 514.912 84.549 514.922 84.537C514.931 84.5249 514.943 84.4984 514.948 84.4781C514.958 84.4348 515.039 84.3468 515.069 84.3468C515.081 84.3468 515.115 84.334 515.146 84.3183C515.196 84.2926 515.205 84.292 515.233 84.3117C515.25 84.3238 515.298 84.3437 515.34 84.3561C515.46 84.3918 515.674 84.5715 515.674 84.6366C515.674 84.6423 515.689 84.6636 515.707 84.6839C515.725 84.7042 515.776 84.7634 515.82 84.8154C516.049 85.0888 516.235 85.1431 516.386 84.9811C516.436 84.9284 516.449 84.9016 516.457 84.8399C516.463 84.798 516.479 84.7407 516.493 84.7125C516.507 84.6844 516.523 84.62 516.528 84.5695C516.533 84.519 516.547 84.4577 516.56 84.4332C516.58 84.3943 516.601 84.2904 516.639 84.0377C516.654 83.9359 516.683 83.9024 516.778 83.8758C516.943 83.8299 517.105 83.9331 517.311 84.2167C517.651 84.683 518.209 84.3928 518.018 83.8493C517.887 83.4767 517.944 83.2381 518.191 83.1239C518.323 83.0624 518.445 83.0919 518.559 83.2135C518.592 83.2494 518.626 83.2787 518.634 83.2787C518.641 83.2787 518.659 83.2938 518.674 83.3123C518.688 83.3307 518.755 83.3737 518.822 83.4077C518.889 83.4418 518.954 83.4757 518.966 83.4831C519.16 83.6011 519.258 83.5959 519.38 83.461L519.465 83.3674V83.2434C519.465 83.1524 519.457 83.1006 519.436 83.0491C519.42 83.0104 519.399 82.9492 519.39 82.913C519.381 82.8768 519.365 82.834 519.356 82.8179C519.346 82.8018 519.33 82.7614 519.32 82.7282C519.31 82.6949 519.293 82.6596 519.281 82.6496C519.235 82.6116 519.25 82.2956 519.3 82.2591C519.386 82.195 519.632 82.1514 519.742 82.1807C519.77 82.1883 519.928 82.1973 520.093 82.2007C520.327 82.2056 520.408 82.2124 520.465 82.2322C520.596 82.2784 520.739 82.2199 520.756 82.1131C520.78 81.9562 520.673 81.6245 520.57 81.5394C520.557 81.5284 520.546 81.5108 520.546 81.5001C520.546 81.4894 520.515 81.4425 520.476 81.3958C520.249 81.1205 520.261 80.8675 520.503 80.8437C520.557 80.8384 520.613 80.8247 520.629 80.8132C520.65 80.797 520.718 80.7924 520.938 80.792C521.324 80.7914 521.452 80.761 521.611 80.6334C521.705 80.5572 521.682 80.3778 521.564 80.2806C521.552 80.27 521.541 80.2535 521.541 80.2439C521.541 80.2156 521.482 80.1453 521.373 80.0448C521.099 79.7923 521.041 79.6286 521.169 79.4691C521.244 79.3749 521.284 79.3445 521.358 79.3273C521.398 79.3178 521.438 79.305 521.446 79.299C521.471 79.2803 521.688 79.1968 521.712 79.1968C521.725 79.1968 521.759 79.1846 521.788 79.1698C521.817 79.1549 521.886 79.1221 521.94 79.0968C521.994 79.0715 522.039 79.0441 522.039 79.036C522.039 79.0279 522.05 79.0096 522.064 78.9954C522.108 78.952 522.158 78.8753 522.153 78.8604C522.144 78.8326 521.995 78.6698 521.636 78.2943C521.471 78.1218 521.483 78.1497 521.483 77.9396L521.483 77.7577L521.551 77.6945C521.588 77.6593 521.645 77.6236 521.679 77.6139C521.712 77.6044 521.754 77.5846 521.774 77.57C521.793 77.5555 521.817 77.5436 521.828 77.5436C521.859 77.5436 522.016 77.4594 522.046 77.4269C522.06 77.4106 522.083 77.3971 522.096 77.397C522.109 77.3969 522.136 77.3875 522.156 77.3761C522.176 77.3647 522.242 77.3309 522.302 77.3011C522.441 77.2327 522.478 77.1929 522.478 77.1122C522.478 77.0673 522.469 77.0436 522.445 77.0223ZM520.927 77.5948C520.903 77.9626 520.889 78.0801 520.866 78.1163C520.853 78.1352 520.839 78.203 520.833 78.267C520.827 78.3309 520.813 78.4001 520.802 78.4206C520.79 78.4412 520.771 78.5103 520.758 78.5743C520.745 78.6396 520.71 78.7422 520.678 78.8084C520.646 78.8731 520.616 78.9492 520.61 78.9773C520.601 79.0235 520.501 79.1663 520.467 79.1806C520.459 79.1838 520.44 79.2004 520.423 79.2174C520.376 79.2655 520.282 79.3234 520.217 79.3438C520.185 79.3539 520.145 79.3706 520.129 79.3808C520.113 79.3911 520.074 79.404 520.042 79.4096C520.009 79.4152 519.963 79.4315 519.939 79.4457C519.915 79.46 519.874 79.4762 519.848 79.4817C519.821 79.4873 519.79 79.5018 519.778 79.514C519.765 79.5267 519.708 79.5422 519.645 79.55C519.584 79.5576 519.467 79.58 519.385 79.5997C519.304 79.6195 519.217 79.6357 519.193 79.6358C519.169 79.6359 519.129 79.649 519.105 79.665C519.081 79.681 519.044 79.6941 519.023 79.6941C519.002 79.6942 518.952 79.7089 518.913 79.7267C518.807 79.7749 518.044 79.7735 517.907 79.7249C517.859 79.708 517.787 79.6941 517.746 79.6939C517.705 79.6937 517.645 79.6815 517.612 79.6667C517.58 79.6519 517.514 79.635 517.466 79.629C517.418 79.6231 517.329 79.6029 517.269 79.5843C517.209 79.5657 517.137 79.5458 517.109 79.5401C517.081 79.5344 517.05 79.5208 517.039 79.51C517.028 79.4991 516.994 79.4834 516.963 79.4751C516.932 79.4668 516.899 79.4505 516.889 79.439C516.88 79.4276 516.853 79.4139 516.829 79.4087C516.773 79.3965 516.634 79.3237 516.559 79.2682C516.527 79.2441 516.481 79.2118 516.456 79.1963C516.367 79.1401 516.347 79.0952 516.364 78.9901C516.371 78.9388 516.384 78.8508 516.391 78.7945C516.398 78.7381 516.413 78.6657 516.425 78.6335C516.436 78.6013 516.45 78.5302 516.455 78.4755C516.466 78.3729 516.515 78.2176 516.543 78.1983C516.567 78.1821 516.774 78.2023 516.809 78.2243C516.826 78.2347 516.872 78.2475 516.912 78.2526C516.951 78.2578 517.043 78.2719 517.115 78.2841C517.381 78.3288 518.343 78.2823 518.465 78.2189C518.479 78.2116 518.522 78.2011 518.561 78.1955C518.6 78.1898 518.672 78.166 518.722 78.1424C518.772 78.1188 518.825 78.0995 518.84 78.0995C518.854 78.0995 518.883 78.0863 518.904 78.0703C518.924 78.0542 518.951 78.041 518.963 78.041C518.975 78.041 519.005 78.0286 519.03 78.0134C519.055 77.9982 519.091 77.9813 519.109 77.9757C519.128 77.9701 519.158 77.9513 519.176 77.9338C519.235 77.8779 519.276 77.8481 519.323 77.8275C519.348 77.8164 519.395 77.7877 519.427 77.7638C519.459 77.7398 519.505 77.7091 519.529 77.6955C519.574 77.6707 519.699 77.5738 519.775 77.5065C519.797 77.4866 519.821 77.4704 519.829 77.4704C519.836 77.4704 519.875 77.4391 519.915 77.4009C519.955 77.3627 520.021 77.3062 520.062 77.2753C520.103 77.2445 520.154 77.1963 520.176 77.1683C520.197 77.1402 520.251 77.0796 520.296 77.0336C520.341 76.9875 520.396 76.9238 520.417 76.8919C520.439 76.86 520.487 76.801 520.524 76.7608C520.562 76.7206 520.636 76.6301 520.688 76.5596C520.787 76.4273 520.804 76.4138 520.82 76.4572C520.824 76.4713 520.848 76.5038 520.872 76.5295L520.916 76.5761L520.926 76.818C520.931 76.951 520.941 77.065 520.947 77.0713C520.959 77.0826 520.955 77.17 520.927 77.5948ZM520.748 75.6472C520.738 75.6803 520.705 75.7517 520.675 75.8057C520.644 75.8598 520.619 75.9138 520.619 75.9257C520.619 75.9376 520.603 75.9651 520.583 75.9868C520.563 76.0085 520.546 76.0343 520.546 76.0441C520.546 76.0539 520.534 76.0776 520.519 76.0968C520.504 76.116 520.484 76.1559 520.475 76.1854C520.465 76.2149 520.448 76.2467 520.437 76.2559C520.426 76.2651 520.412 76.2926 520.407 76.317C520.401 76.3413 520.381 76.375 520.362 76.3917C520.343 76.4085 520.327 76.4291 520.327 76.4374C520.327 76.4457 520.314 76.4659 520.298 76.4823C520.281 76.4987 520.229 76.5604 520.181 76.6195C520.132 76.6785 520.061 76.7575 520.022 76.795C519.983 76.8325 519.934 76.8896 519.912 76.9218C519.891 76.9539 519.859 76.9918 519.84 77.0059C519.822 77.0199 519.768 77.0627 519.719 77.101C519.537 77.2445 519.509 77.2656 519.497 77.2656C519.491 77.2657 519.453 77.2953 519.413 77.3315C519.373 77.3676 519.337 77.3972 519.332 77.3972C519.327 77.3972 519.31 77.4088 519.294 77.4228C519.222 77.4864 519.142 77.5436 519.124 77.5436C519.113 77.5436 519.088 77.555 519.068 77.569C519.048 77.583 519.014 77.6044 518.992 77.6166C518.97 77.6287 518.903 77.6666 518.843 77.7008C518.783 77.735 518.722 77.763 518.707 77.7631C518.693 77.7631 518.661 77.7752 518.637 77.7899C518.613 77.8046 518.562 77.8209 518.523 77.8261C518.485 77.8314 518.436 77.845 518.414 77.8563C518.265 77.9332 517.29 77.9849 517.128 77.9245C517.084 77.9081 517.026 77.8947 516.998 77.8947C516.97 77.8947 516.913 77.8818 516.872 77.866C516.83 77.8502 516.768 77.833 516.733 77.8278C516.663 77.8172 516.581 77.7426 516.581 77.6886C516.581 77.6724 516.571 77.6392 516.558 77.6147C516.546 77.5903 516.529 77.5322 516.522 77.4856C516.514 77.439 516.495 77.3597 516.479 77.3094C516.463 77.259 516.45 77.1866 516.45 77.1485C516.45 77.1103 516.439 77.0502 516.427 77.015C516.392 76.9181 516.382 76.7358 516.41 76.7122C516.423 76.7018 516.501 76.688 516.588 76.6811C516.673 76.6742 516.751 76.6624 516.761 76.6547C516.784 76.6367 516.937 76.6072 517.007 76.6072C517.037 76.6072 517.103 76.5946 517.154 76.5792C517.205 76.5638 517.277 76.5467 517.313 76.5412C517.349 76.5357 517.392 76.5231 517.408 76.5131C517.424 76.5031 517.47 76.4869 517.51 76.4771C517.551 76.4672 517.608 76.4431 517.638 76.4235C517.668 76.4038 517.699 76.3877 517.706 76.3877C517.72 76.3877 517.877 76.3081 517.905 76.2869C517.913 76.2807 517.95 76.2647 517.986 76.2512C518.05 76.2272 518.082 76.2059 518.366 75.9936C518.562 75.8472 518.924 75.4854 518.96 75.3987C518.975 75.3633 519.018 75.3038 519.069 75.2472C519.108 75.2031 519.39 74.6451 519.39 74.6107C519.39 74.5895 519.498 74.3298 519.514 74.3102C519.525 74.2981 519.538 74.2718 519.543 74.2517C519.549 74.2316 519.566 74.1888 519.58 74.1566C519.595 74.1244 519.625 74.0388 519.647 73.9664C519.669 73.894 519.699 73.8018 519.714 73.7615C519.729 73.7213 519.745 73.6423 519.75 73.586C519.756 73.5297 519.772 73.4539 519.786 73.4177C519.8 73.3815 519.815 73.3156 519.821 73.2713C519.834 73.1669 519.849 73.1385 519.878 73.169C519.912 73.2038 520.034 73.3889 520.034 73.404C520.034 73.4116 520.046 73.4296 520.06 73.4441C520.096 73.4812 520.181 73.6029 520.181 73.6174C520.181 73.624 520.196 73.6625 520.216 73.7028C520.289 73.8551 520.327 73.9433 520.327 73.9649C520.327 73.9772 520.339 73.999 520.355 74.0134C520.37 74.0278 520.393 74.0791 520.405 74.1273C520.436 74.2496 520.486 74.3864 520.511 74.4133C520.522 74.4258 520.541 74.4647 520.553 74.4999C520.566 74.535 520.582 74.5709 520.589 74.5796C520.596 74.5883 520.606 74.6482 520.612 74.7125C520.618 74.7769 520.634 74.8526 520.648 74.8808C520.663 74.9089 520.682 74.9715 520.691 75.0198C520.7 75.0681 520.72 75.1668 520.735 75.2392C520.768 75.3931 520.773 75.5619 520.748 75.6472ZM520.286 79.9178C520.279 79.9276 520.268 79.9645 520.263 79.9997C520.257 80.0349 520.24 80.0908 520.225 80.124C520.21 80.1572 520.193 80.2173 520.187 80.2575C520.181 80.2978 520.165 80.3471 520.151 80.3673C520.137 80.3874 520.114 80.4269 520.101 80.455C520.059 80.5447 520.031 80.5932 520.005 80.6233C519.991 80.6394 519.971 80.6775 519.962 80.7081C519.952 80.7386 519.923 80.7913 519.897 80.8251C519.847 80.8927 519.812 80.9421 519.756 81.026C519.606 81.2526 519.522 81.3501 519.215 81.653L519.091 81.7757L518.717 81.7672C518.456 81.7612 518.322 81.7522 518.271 81.7373C518.224 81.7236 518.105 81.7137 517.94 81.7096C517.708 81.7039 517.676 81.7 517.628 81.6716C517.598 81.6542 517.534 81.6306 517.484 81.6193C517.374 81.5943 517.26 81.5533 517.211 81.5211C517.171 81.4954 517.117 81.4661 517.035 81.4267C517.007 81.4131 516.96 81.3898 516.931 81.3748C516.901 81.3598 516.868 81.3475 516.856 81.3475C516.844 81.3475 516.818 81.3347 516.798 81.3191C516.778 81.3036 516.744 81.2863 516.722 81.2807C516.7 81.2752 516.644 81.2387 516.599 81.1995C516.553 81.1603 516.511 81.1282 516.505 81.1282C516.5 81.1281 516.429 81.0787 516.349 81.0183C516.269 80.958 516.2 80.9086 516.195 80.9086C516.184 80.9086 516.107 80.8289 515.996 80.7029C515.944 80.6432 515.826 80.5187 515.735 80.426C515.538 80.2271 515.51 80.1774 515.56 80.1213C515.642 80.0299 515.745 79.9274 515.803 79.8796C515.837 79.851 515.9 79.7864 515.942 79.736C516.057 79.5977 516.115 79.5475 516.15 79.5574C516.207 79.5738 516.378 79.6976 516.393 79.7337C516.408 79.7663 516.67 79.9135 516.714 79.9136C516.727 79.9137 516.75 79.9269 516.764 79.943C516.779 79.9591 516.799 79.9722 516.808 79.9722C516.818 79.9722 516.851 79.9893 516.882 80.0102C516.942 80.0508 517.125 80.1183 517.175 80.1184C517.192 80.1185 517.237 80.135 517.275 80.1551C517.313 80.1752 517.365 80.1918 517.391 80.192C517.416 80.1922 517.466 80.2054 517.501 80.2213C517.536 80.2372 517.595 80.2504 517.633 80.2507C517.67 80.2509 517.747 80.2581 517.803 80.2665C517.95 80.2886 518.173 80.3102 518.249 80.3099C518.481 80.3088 518.804 80.2637 518.908 80.2179C518.936 80.2054 518.998 80.1905 519.046 80.1848C519.093 80.179 519.146 80.1658 519.163 80.1555C519.179 80.1451 519.223 80.1328 519.261 80.1281C519.298 80.1234 519.357 80.1093 519.392 80.0969C519.428 80.0844 519.508 80.0674 519.572 80.0591C519.635 80.0508 519.711 80.0317 519.741 80.0166C519.77 80.0016 519.82 79.9845 519.852 79.9786C519.884 79.9728 519.926 79.9558 519.945 79.9408C519.964 79.9259 519.994 79.9137 520.011 79.9136C520.028 79.9136 520.061 79.903 520.085 79.8902C520.11 79.8773 520.155 79.8575 520.187 79.8461C520.218 79.8348 520.253 79.8121 520.265 79.7958C520.28 79.7736 520.29 79.77 520.305 79.7818C520.325 79.7986 520.313 79.8834 520.286 79.9178ZM519.435 73.3373C519.42 73.4097 519.403 73.5051 519.398 73.5494C519.392 73.5937 519.376 73.6534 519.362 73.6822C519.347 73.7109 519.327 73.7732 519.317 73.8206C519.307 73.8679 519.291 73.9201 519.281 73.9365C519.271 73.9529 519.258 73.9861 519.253 74.0103C519.247 74.0344 519.231 74.0805 519.215 74.1127C519.2 74.1449 519.18 74.1992 519.17 74.2334C519.16 74.2676 519.147 74.2956 519.142 74.2956C519.128 74.2956 519.098 74.3647 519.098 74.3969C519.098 74.4116 519.088 74.4316 519.077 74.4412C519.065 74.4509 519.048 74.483 519.038 74.5125C519.028 74.5421 519.008 74.5819 518.993 74.6011C518.978 74.6203 518.966 74.654 518.966 74.676C518.966 74.6979 518.953 74.7329 518.936 74.7538C518.92 74.7746 518.899 74.8133 518.89 74.8399C518.881 74.8664 518.87 74.8914 518.865 74.8954C518.842 74.9147 518.749 75.0655 518.68 75.1953C518.667 75.2195 518.634 75.2557 518.607 75.2758C518.579 75.2959 518.528 75.3486 518.492 75.3929C518.457 75.4371 518.39 75.5062 518.345 75.5465C518.299 75.5867 518.234 75.6444 518.201 75.6747C518.167 75.7049 518.103 75.7521 518.059 75.7794C518.015 75.8067 517.969 75.8379 517.956 75.8487C517.904 75.8948 517.81 75.9478 517.754 75.9627C517.722 75.9716 517.686 75.9871 517.676 75.9972C517.62 76.0514 517.464 76.1179 517.257 76.1758C517.215 76.1878 517.16 76.208 517.135 76.2207C517.11 76.2334 517.024 76.2502 516.942 76.2581C516.86 76.266 516.767 76.2816 516.735 76.2929C516.703 76.3042 516.601 76.3198 516.509 76.3276C516.298 76.3454 516.276 76.3367 516.245 76.2241C516.236 76.1944 516.205 76.1382 516.175 76.0992C516.07 75.9625 516.055 75.9412 516.031 75.8976C516.018 75.8735 515.982 75.8241 515.952 75.7879C515.922 75.7517 515.884 75.695 515.867 75.6619C515.85 75.6289 515.804 75.5637 515.764 75.5171C515.682 75.4202 515.684 75.3721 515.773 75.3228C515.962 75.218 515.959 75.2202 516.062 75.1222C516.13 75.0575 516.253 74.9686 516.274 74.9686C516.282 74.9686 516.307 74.9505 516.33 74.9283C516.353 74.9062 516.391 74.8716 516.415 74.8515C516.546 74.7395 516.574 74.7122 516.62 74.653C516.647 74.6172 516.669 74.5822 516.669 74.5752C516.669 74.5681 516.694 74.5438 516.724 74.5212C516.785 74.4752 516.947 74.3101 516.947 74.2937C516.947 74.2879 516.98 74.2481 517.02 74.2053C517.06 74.1624 517.097 74.1095 517.101 74.0878C517.106 74.066 517.122 74.0331 517.136 74.0146C517.151 73.9961 517.187 73.936 517.216 73.881C517.246 73.8261 517.282 73.7635 517.296 73.7421C517.393 73.5941 517.442 73.4814 517.453 73.3775C517.458 73.3232 517.469 73.2666 517.477 73.2517C517.485 73.2368 517.507 73.1611 517.527 73.0834C517.547 73.0058 517.569 72.9192 517.576 72.891C517.617 72.736 517.607 71.7281 517.563 71.5962C517.555 71.5721 517.541 71.4338 517.532 71.289C517.523 71.1441 517.506 70.9828 517.493 70.9305C517.481 70.8782 517.465 70.7663 517.459 70.6818C517.451 70.5767 517.438 70.5067 517.417 70.46C517.314 70.2339 517.376 70.1783 517.577 70.3154C517.622 70.3458 517.673 70.3753 517.69 70.3809C517.708 70.3866 517.723 70.3975 517.723 70.4053C517.723 70.4131 517.753 70.4326 517.79 70.4486C517.828 70.4646 517.897 70.5153 517.945 70.5612C517.992 70.6072 518.042 70.651 518.056 70.6586C518.07 70.6662 518.112 70.7042 518.149 70.743C518.187 70.7818 518.224 70.8135 518.232 70.8135C518.25 70.8135 518.372 70.934 518.432 71.0105C518.478 71.0705 518.569 71.1748 518.622 71.2288C518.652 71.2589 518.664 71.275 518.734 71.3785C518.755 71.4097 518.8 71.4616 518.833 71.4938C518.866 71.526 518.893 71.5605 518.893 71.5704C518.893 71.5804 518.93 71.6316 518.974 71.6842C519.019 71.7368 519.07 71.8013 519.088 71.8275C519.106 71.8537 519.128 71.8848 519.139 71.8966C519.168 71.9308 519.306 72.1168 519.354 72.1875C519.388 72.2374 519.4 72.2756 519.408 72.3557C519.414 72.4128 519.426 72.5121 519.435 72.5765C519.479 72.9078 519.479 73.118 519.435 73.3373ZM518.584 82.2517C518.534 82.2976 518.46 82.3604 518.419 82.3914C518.378 82.4224 518.317 82.4759 518.283 82.5103C518.249 82.5447 518.17 82.6181 518.108 82.6734C518.046 82.7287 517.975 82.7923 517.95 82.8146C517.926 82.837 517.896 82.864 517.884 82.8746C517.871 82.8852 517.839 82.9015 517.812 82.9107C517.785 82.92 517.726 82.9522 517.682 82.9824C517.637 83.0126 517.554 83.0629 517.497 83.0941C517.44 83.1253 517.378 83.1631 517.359 83.1782C517.339 83.1933 517.316 83.2056 517.307 83.2056C517.298 83.2056 517.261 83.2215 517.224 83.241C517.089 83.313 516.977 83.3137 516.889 83.2429C516.877 83.2333 516.811 83.2037 516.742 83.1772C516.674 83.1508 516.591 83.1134 516.558 83.0942C516.525 83.075 516.49 83.0593 516.48 83.0593C516.466 83.0593 516.332 82.9656 516.216 82.8737C516.204 82.8642 516.15 82.8214 516.096 82.7786C516.042 82.7358 515.947 82.6632 515.884 82.6172C515.718 82.4957 515.351 82.1297 515.184 81.9181C515.104 81.8175 515.01 81.7023 514.974 81.6621C514.939 81.6218 514.885 81.5494 514.854 81.5011C514.824 81.4528 514.785 81.3963 514.769 81.3755C514.753 81.3547 514.735 81.3185 514.729 81.295C514.724 81.2716 514.707 81.2367 514.692 81.2175C514.677 81.1983 514.665 81.1741 514.665 81.1638C514.665 81.1318 514.575 80.9184 514.542 80.872C514.516 80.8356 514.511 80.8071 514.511 80.704V80.58L514.584 80.5557C514.625 80.5424 514.71 80.5164 514.775 80.498C514.839 80.4796 514.912 80.4526 514.937 80.4379C514.962 80.4232 515.008 80.4111 515.04 80.4111C515.071 80.4111 515.121 80.3983 515.15 80.3825C515.198 80.3568 515.205 80.3562 515.223 80.3767C515.233 80.3893 515.256 80.405 515.273 80.4116C515.291 80.4182 515.324 80.4547 515.347 80.4926C515.37 80.5305 515.405 80.5776 515.426 80.5973C515.63 80.7971 515.821 80.9958 515.821 81.0084C515.821 81.0151 515.865 81.056 515.919 81.0994C515.974 81.1429 516.064 81.2236 516.119 81.2789C516.221 81.3803 516.292 81.4344 516.39 81.4845C516.419 81.4995 516.448 81.5206 516.454 81.5315C516.46 81.5423 516.49 81.5557 516.519 81.5613C516.549 81.5669 516.593 81.5836 516.618 81.5984C516.642 81.6132 516.672 81.6254 516.684 81.6255C516.696 81.6256 516.722 81.6347 516.742 81.6457C516.762 81.6567 516.832 81.6937 516.896 81.7279C516.96 81.7621 517.029 81.8024 517.048 81.8175C517.067 81.8326 517.095 81.8449 517.111 81.8449C517.126 81.8449 517.165 81.8583 517.197 81.8746C517.229 81.891 517.288 81.9106 517.329 81.9184C517.37 81.9261 517.419 81.9449 517.438 81.9602C517.458 81.9754 517.498 81.9925 517.527 81.998C517.556 82.0035 517.595 82.0178 517.614 82.0297C517.64 82.0467 517.737 82.0546 518.057 82.0656C518.35 82.0757 518.485 82.0859 518.528 82.1013C518.562 82.1132 518.604 82.1229 518.622 82.1229C518.699 82.1229 518.691 82.1526 518.584 82.2517ZM517.203 72.8814C517.19 72.9022 517.173 72.9607 517.166 73.0112C517.158 73.0618 517.145 73.1328 517.137 73.169C517.128 73.2052 517.116 73.2645 517.11 73.3007C517.104 73.3369 517.075 73.406 517.046 73.4543C517.016 73.5026 516.962 73.603 516.925 73.6774C516.889 73.7519 516.853 73.8128 516.846 73.8128C516.84 73.8128 516.823 73.8407 516.81 73.8749C516.796 73.9127 516.77 73.9464 516.744 73.9609C516.721 73.974 516.677 74.0233 516.647 74.0706C516.616 74.1179 516.56 74.1895 516.521 74.2297C516.482 74.27 516.426 74.3333 516.395 74.3705C516.365 74.4077 516.291 74.4801 516.231 74.5315C516.171 74.5828 516.108 74.637 516.092 74.6519C516.076 74.6668 516.013 74.7146 515.952 74.758C515.892 74.8014 515.831 74.8477 515.817 74.8609C515.804 74.8741 515.78 74.8922 515.765 74.9012C515.664 74.9625 515.639 74.9794 515.605 75.0074C515.538 75.0638 515.4 75.0624 515.352 75.0049C515.342 74.9928 515.299 74.9728 515.257 74.9604C515.214 74.9481 515.176 74.9284 515.171 74.9167C515.167 74.905 515.154 74.8954 515.143 74.8954C515.131 74.8954 515.107 74.8832 515.087 74.8682C515.068 74.8532 515.036 74.8361 515.016 74.8302C514.976 74.8184 514.802 74.7406 514.767 74.7188C514.755 74.7112 514.729 74.6978 514.709 74.6891C514.643 74.6602 514.557 74.6209 514.46 74.5754C514.354 74.5253 514.268 74.4928 514.162 74.4628C514.123 74.4517 514.083 74.436 514.073 74.4279C514.063 74.4198 513.973 74.4042 513.873 74.3933C513.773 74.3823 513.677 74.3657 513.66 74.3564C513.619 74.3345 512.769 74.3323 512.756 74.3541C512.723 74.4059 512.557 74.4542 512.529 74.4199C512.519 74.4079 512.502 74.398 512.493 74.398C512.475 74.398 512.357 74.2756 512.251 74.1483C512.153 74.0305 512.004 73.8634 511.934 73.7924C511.895 73.753 511.841 73.6905 511.815 73.6534C511.789 73.6163 511.729 73.5498 511.683 73.5055C511.637 73.4613 511.573 73.3888 511.541 73.3446C511.51 73.3003 511.475 73.259 511.465 73.2527C511.455 73.2465 511.41 73.1971 511.364 73.143C511.319 73.0889 511.241 73.0014 511.192 72.9486C511.143 72.8957 511.083 72.8266 511.059 72.7949C511.022 72.7466 510.917 72.6259 510.821 72.5221C510.809 72.5082 510.791 72.4844 510.782 72.4691C510.755 72.4223 510.71 72.3593 510.671 72.3116C510.651 72.2866 510.621 72.2475 510.605 72.2247C510.589 72.2019 510.561 72.1671 510.543 72.1473C510.525 72.1275 510.51 72.1019 510.51 72.0904C510.51 72.0788 510.478 72.0321 510.439 71.9864C510.4 71.9408 510.346 71.8673 510.319 71.823C510.276 71.7527 510.175 71.6174 510.109 71.5425C510.097 71.529 510.08 71.5027 510.07 71.4839C510.06 71.4652 510.044 71.4451 510.034 71.4391C510.024 71.4332 510.011 71.4102 510.005 71.3879C510 71.3657 509.963 71.3102 509.923 71.2645C509.884 71.2189 509.851 71.1755 509.851 71.168C509.851 71.1606 509.838 71.1426 509.822 71.128C509.806 71.1135 509.793 71.0944 509.793 71.0855C509.793 71.0767 509.776 71.0498 509.755 71.0256C509.734 71.0015 509.703 70.9629 509.686 70.9398C509.668 70.9167 509.636 70.8764 509.614 70.8501C509.591 70.8238 509.573 70.7955 509.573 70.7873C509.573 70.779 509.548 70.7404 509.518 70.7014C509.411 70.5667 509.281 70.3303 509.281 70.2726C509.281 70.2628 509.271 70.2372 509.259 70.2159C509.247 70.1945 509.227 70.1397 509.215 70.0942C509.202 70.0486 509.182 70.0037 509.171 69.9944C509.16 69.9851 509.146 69.9567 509.141 69.9312C509.135 69.9057 509.12 69.8692 509.108 69.85C509.085 69.8155 509.051 69.7282 509.008 69.5991C508.996 69.5629 508.971 69.5004 508.952 69.4602C508.869 69.2822 508.867 69.2694 508.848 68.7067C508.837 68.3627 508.876 68.3247 509.273 68.2943C509.387 68.2856 509.477 68.2715 509.496 68.2594C509.514 68.2475 509.606 68.2325 509.715 68.2234C509.818 68.2148 509.939 68.2018 509.983 68.1945C510.027 68.1872 510.136 68.1743 510.224 68.1658C510.416 68.1475 510.522 68.1292 510.614 68.0989C510.699 68.0708 512.37 68.0772 512.558 68.1062C512.618 68.1156 512.783 68.1287 512.924 68.1354C513.17 68.1472 513.265 68.16 513.352 68.1933C513.374 68.2018 513.437 68.2158 513.49 68.2244C513.544 68.233 513.596 68.2461 513.605 68.2535C513.613 68.2609 513.656 68.2744 513.7 68.2834C513.744 68.2925 513.793 68.3079 513.809 68.3177C513.825 68.3275 513.878 68.3439 513.926 68.3543C513.974 68.3646 514.072 68.3889 514.142 68.4082C514.213 68.4275 514.289 68.4433 514.311 68.4433C514.333 68.4433 514.366 68.4536 514.384 68.4661C514.401 68.4786 514.457 68.4954 514.507 68.5035C514.558 68.5116 514.617 68.5271 514.639 68.5381C514.701 68.5687 514.954 68.6442 515.055 68.6623C515.105 68.6712 515.165 68.6881 515.187 68.6998C515.21 68.7115 515.249 68.7212 515.275 68.7212C515.326 68.7213 515.396 68.7481 515.396 68.7676C515.396 68.7743 515.413 68.7798 515.433 68.7798C515.454 68.7798 515.508 68.7955 515.554 68.8147C515.6 68.8338 515.677 68.8608 515.726 68.8746C515.774 68.8884 515.82 68.9053 515.829 68.9123C515.837 68.9192 515.873 68.9295 515.909 68.9352C515.976 68.9457 516.033 68.983 516.16 69.0979C516.198 69.1322 516.237 69.1602 516.247 69.1602C516.312 69.1602 516.71 69.5062 516.735 69.5841C516.74 69.5995 516.773 69.6502 516.809 69.6967C516.846 69.7432 516.878 69.7946 516.881 69.8109C516.884 69.8272 516.89 69.857 516.894 69.8771C516.912 69.9769 516.967 70.165 516.984 70.1844C516.994 70.1964 517.011 70.2349 517.02 70.2698C517.029 70.3047 517.049 70.3574 517.065 70.3868C517.08 70.4163 517.1 70.4898 517.109 70.5501C517.118 70.6105 517.135 70.6958 517.146 70.7397C517.157 70.7837 517.167 70.8561 517.167 70.9007C517.167 70.9453 517.178 71.0212 517.191 71.0695C517.236 71.2419 517.238 71.2984 517.233 72.0663C517.229 72.7673 517.226 72.8472 517.203 72.8814ZM516.348 83.5099C516.324 83.5274 516.273 83.5493 516.235 83.5586C516.196 83.5678 516.135 83.5871 516.099 83.6014C516.062 83.6157 515.983 83.6345 515.923 83.6431C515.863 83.6517 515.777 83.6656 515.733 83.674C515.689 83.6823 515.577 83.6981 515.484 83.7091C515.392 83.7201 515.293 83.7388 515.265 83.7507C515.236 83.7626 515.168 83.7768 515.113 83.7821C515.058 83.7875 514.977 83.8012 514.934 83.8126C514.801 83.8472 514.66 83.7648 514.517 83.5679C514.478 83.5137 514.445 83.463 514.445 83.4553C514.445 83.4475 514.436 83.4359 514.426 83.4294C514.4 83.4144 514.372 83.3613 514.372 83.3272C514.372 83.3126 514.326 83.2534 514.27 83.1955C514.213 83.1377 514.167 83.0817 514.167 83.0712C514.167 83.0233 514.072 82.8578 513.981 82.7481C513.926 82.6819 513.861 82.596 513.837 82.5574C513.814 82.5187 513.765 82.4507 513.73 82.4062C513.695 82.3617 513.661 82.3044 513.655 82.2789C513.642 82.2297 513.583 82.0813 513.537 81.983C513.522 81.9503 513.509 81.9106 513.509 81.8948C513.509 81.879 513.5 81.8531 513.49 81.8372C513.479 81.8214 513.459 81.7359 513.445 81.6474C513.431 81.5589 513.416 81.4733 513.411 81.4572C513.395 81.396 513.377 81.2608 513.363 81.0932C513.355 80.9976 513.341 80.8961 513.332 80.8677C513.321 80.8359 513.318 80.7733 513.323 80.7051C513.335 80.545 513.349 80.5364 513.567 80.548C514.003 80.5711 514.113 80.5961 514.159 80.6818C514.172 80.706 514.192 80.7422 514.204 80.7623C514.215 80.7824 514.228 80.8165 514.233 80.8381C514.237 80.8596 514.251 80.8873 514.263 80.8995C514.275 80.9117 514.291 80.9512 514.297 80.9872C514.304 81.0232 514.323 81.075 514.339 81.1022C514.355 81.1294 514.373 81.1776 514.379 81.2093C514.384 81.2411 514.415 81.3207 514.447 81.3863C514.478 81.4519 514.504 81.5225 514.504 81.5432C514.504 81.6062 514.623 81.8572 514.681 81.9167C514.702 81.9382 514.724 81.9702 514.73 81.9878C514.735 82.0054 514.754 82.0314 514.772 82.0457C514.79 82.06 514.819 82.0915 514.838 82.1156C514.906 82.2056 515.281 82.5718 515.377 82.6423C515.431 82.6825 515.532 82.7599 515.6 82.8142C515.668 82.8685 515.732 82.913 515.743 82.913C515.754 82.913 515.813 82.9624 515.874 83.0227C515.935 83.0831 515.99 83.1324 515.996 83.1324C516.012 83.1324 516.14 83.2309 516.239 83.319C516.259 83.3371 516.285 83.3519 516.298 83.3519C516.376 83.3519 516.412 83.4628 516.348 83.5099ZM515.851 77.2901C515.835 77.3157 515.815 77.3626 515.807 77.3943C515.797 77.4319 515.766 77.4767 515.718 77.5233C515.677 77.5626 515.633 77.6068 515.619 77.6215C515.509 77.7385 515.428 77.812 515.39 77.8305C515.333 77.8581 515.262 77.8979 515.218 77.9272C515.114 77.9952 515.005 77.8711 515.002 77.6825C515.001 77.6373 515.049 77.5436 515.073 77.5436C515.089 77.5436 515.294 77.3383 515.294 77.322C515.294 77.2991 515.549 77.0315 515.571 77.0315C515.578 77.0315 515.589 77.0184 515.594 77.0023C515.599 76.9863 515.612 76.9642 515.623 76.9532C515.634 76.9423 515.656 76.9122 515.671 76.8864L515.7 76.8394L515.753 76.9342C515.782 76.9863 515.806 77.0377 515.806 77.0485C515.807 77.0593 515.823 77.0944 515.843 77.1266C515.886 77.1972 515.888 77.229 515.851 77.2901ZM515.843 78.3409C515.819 78.4092 515.804 78.4414 515.738 78.5643C515.698 78.6394 515.536 78.6793 515.212 78.6943C515.024 78.7029 515.01 78.694 515.06 78.5972C515.076 78.5661 515.093 78.5026 515.099 78.4561C515.111 78.353 515.159 78.3003 515.267 78.2746C515.306 78.2652 515.352 78.246 515.371 78.2318C515.389 78.2176 515.42 78.2009 515.44 78.1946C515.46 78.1884 515.495 78.1677 515.518 78.1487C515.541 78.1297 515.568 78.1141 515.578 78.1141C515.588 78.1141 515.634 78.0845 515.681 78.0483C515.772 77.9773 515.837 77.9631 515.864 78.0081C515.887 78.0457 515.874 78.2559 515.843 78.3409ZM515.375 79.2421C515.366 79.2968 515.306 79.3575 515.212 79.4061C515.186 79.4192 515.162 79.4399 515.157 79.4523C515.143 79.4887 514.912 79.4843 514.878 79.4471C514.865 79.4318 514.824 79.4149 514.787 79.4094C514.687 79.3944 514.616 79.2879 514.688 79.2603C514.7 79.2555 514.72 79.2277 514.733 79.1986C514.764 79.1257 514.893 79.0159 514.934 79.0276C514.951 79.0324 515.044 79.04 515.14 79.0444C515.391 79.0557 515.405 79.0629 515.388 79.1675C515.386 79.1796 515.38 79.2132 515.375 79.2421ZM515.323 76.4149C515.294 76.5347 515.254 76.6498 515.183 76.8139C515.164 76.8591 515.148 76.9029 515.148 76.9111C515.148 76.9675 514.967 77.2005 514.878 77.2587C514.766 77.3322 514.63 77.1421 514.7 77.0099C514.721 76.9711 514.738 76.9306 514.738 76.9199C514.738 76.9092 514.751 76.8793 514.767 76.8533C514.813 76.7764 514.884 76.396 514.884 76.2218C514.884 76.1677 514.893 76.1023 514.904 76.0764C514.915 76.0505 514.928 75.9876 514.934 75.9366C514.94 75.8857 514.952 75.8283 514.96 75.8091L514.976 75.7742L515.019 75.81C515.042 75.8297 515.104 75.9003 515.155 75.9668C515.207 76.0334 515.258 76.0977 515.269 76.1098C515.301 76.1441 515.343 76.2332 515.351 76.2853C515.352 76.2893 515.339 76.3476 515.323 76.4149ZM514.606 78.5165C514.593 78.6415 514.585 78.6716 514.547 78.7237C514.523 78.7572 514.504 78.7946 514.504 78.8069C514.504 78.8191 514.471 78.8707 514.43 78.9215C514.39 78.9723 514.342 79.0327 514.324 79.0556C514.293 79.0952 514.218 79.1525 514.143 79.1939C514.124 79.2044 514.109 79.2186 514.109 79.2255C514.109 79.2746 513.799 79.3776 513.596 79.3962C513.351 79.4186 512.887 79.2032 512.799 79.0257C512.79 79.0086 512.759 78.9696 512.729 78.939C512.7 78.9084 512.668 78.86 512.659 78.8316C512.65 78.8031 512.635 78.7667 512.625 78.7506C512.602 78.7115 512.55 78.5649 512.524 78.4653C512.496 78.3582 512.513 77.9827 512.548 77.9166C512.599 77.8187 512.646 77.7073 512.646 77.6807C512.646 77.6652 512.665 77.6314 512.689 77.6056C512.712 77.5798 512.735 77.546 512.74 77.5305C512.745 77.515 512.766 77.4917 512.785 77.4787C512.805 77.4657 512.839 77.4288 512.86 77.3966C512.881 77.3645 512.914 77.3344 512.932 77.3298C512.95 77.3252 512.977 77.3089 512.991 77.2935C513.005 77.2781 513.027 77.2656 513.04 77.2656C513.054 77.2656 513.087 77.2488 513.115 77.2282C513.235 77.1387 513.277 77.1285 513.549 77.1225C513.779 77.1173 513.806 77.1194 513.849 77.1454C513.875 77.1612 513.915 77.1782 513.937 77.1834C513.958 77.1886 514.001 77.2092 514.03 77.2292C514.06 77.2492 514.089 77.2656 514.096 77.2656C514.109 77.2656 514.183 77.3145 514.242 77.3609C514.262 77.3769 514.301 77.4228 514.329 77.4631C514.356 77.5033 514.397 77.5573 514.419 77.5831C514.491 77.6693 514.576 77.8644 514.599 77.9971C514.636 78.2113 514.645 78.2958 514.633 78.3336C514.627 78.3537 514.615 78.436 514.606 78.5165ZM514.555 75.6782C514.542 75.733 514.534 75.8427 514.533 75.9708C514.533 76.2758 514.506 76.5605 514.473 76.6162C514.458 76.6413 514.445 76.6763 514.445 76.6939C514.445 76.7872 514.329 76.8307 514.232 76.7738C514.126 76.7116 514.117 76.6839 514.116 76.3804C514.115 76.0812 514.09 75.8516 514.05 75.7659C514.035 75.7337 514.019 75.6834 514.014 75.654C514.01 75.6247 513.996 75.5929 513.985 75.5836C513.974 75.5742 513.957 75.5326 513.948 75.4913C513.94 75.4499 513.924 75.4059 513.913 75.3935C513.759 75.2105 513.969 75.1941 514.286 75.3643C514.316 75.38 514.35 75.3929 514.363 75.3929C514.403 75.3929 514.549 75.4829 514.563 75.5157C514.58 75.5584 514.579 75.5777 514.555 75.6782ZM514.56 79.8203C514.55 79.8262 514.486 79.833 514.417 79.8353C514.183 79.8432 514.04 79.6893 514.22 79.6219C514.251 79.61 514.286 79.5918 514.296 79.5814C514.33 79.549 514.468 79.5999 514.551 79.6751C514.581 79.7023 514.587 79.8034 514.56 79.8203ZM513.987 83.7615C513.984 83.7615 513.961 83.7514 513.936 83.739C513.904 83.7226 513.812 83.713 513.601 83.7037C513.442 83.6967 513.295 83.6844 513.274 83.6764C513.253 83.6684 513.197 83.6573 513.15 83.6517C513.073 83.6426 513.016 83.6236 512.84 83.5483C512.813 83.5371 512.792 83.5212 512.792 83.5131C512.792 83.5049 512.783 83.4982 512.773 83.4982C512.751 83.4982 512.599 83.3859 512.423 83.2406C512.314 83.1502 512.281 83.0977 512.28 83.0154C512.28 83.0033 512.269 82.9737 512.257 82.9495C512.244 82.9254 512.228 82.8698 512.221 82.826C512.213 82.7821 512.197 82.7238 512.184 82.6962C512.171 82.6687 512.155 82.6112 512.149 82.5684C512.144 82.5256 512.131 82.481 512.121 82.4693C512.038 82.3685 512.039 81.6035 512.123 81.3841C512.135 81.3519 512.153 81.2762 512.163 81.2158C512.173 81.1555 512.189 81.0929 512.199 81.0768C512.209 81.0607 512.22 81.0168 512.225 80.9792C512.229 80.9415 512.246 80.893 512.263 80.8711C512.281 80.8493 512.295 80.8155 512.295 80.7959C512.295 80.7764 512.311 80.7244 512.331 80.6804C512.351 80.6365 512.368 80.5957 512.368 80.5898C512.368 80.584 512.383 80.5496 512.402 80.5134C512.422 80.4773 512.442 80.4313 512.448 80.4111C512.455 80.391 512.472 80.3589 512.487 80.3397C512.502 80.3205 512.514 80.2872 512.514 80.2658C512.514 80.1782 512.575 80.1705 512.707 80.2415C512.758 80.2688 512.829 80.3062 512.865 80.3244C512.901 80.3427 512.944 80.3643 512.96 80.3725C512.976 80.3806 513.007 80.3962 513.029 80.4072C513.1 80.4431 513.116 80.8057 513.052 80.9295C513.044 80.945 513.031 81.0068 513.025 81.0669C513.018 81.127 513.002 81.2086 512.989 81.2481C512.975 81.2885 512.968 81.3406 512.973 81.3667C512.977 81.3924 512.988 81.4528 512.996 81.5011C513.005 81.5494 513.018 81.6407 513.026 81.7039C513.034 81.7671 513.047 81.8271 513.055 81.8371C513.063 81.847 513.076 81.9105 513.083 81.9781C513.09 82.0477 513.109 82.1308 513.126 82.1697C513.144 82.2074 513.158 82.2437 513.158 82.2501C513.159 82.2566 513.175 82.2948 513.195 82.3351C513.215 82.3753 513.231 82.4255 513.231 82.4467C513.231 82.4678 513.24 82.4927 513.251 82.502C513.263 82.5113 513.28 82.5401 513.29 82.566C513.301 82.5919 513.32 82.6295 513.333 82.6496C513.347 82.6697 513.367 82.7092 513.378 82.7374C513.389 82.7656 513.417 82.8149 513.439 82.8471C513.462 82.8793 513.499 82.933 513.522 82.9665C513.546 82.9999 513.569 83.0427 513.575 83.0616C513.591 83.1132 513.656 83.2152 513.717 83.2836C513.786 83.3624 513.841 83.4376 513.861 83.4836C513.869 83.5037 513.892 83.5366 513.911 83.5567C513.929 83.5768 513.949 83.6081 513.955 83.6262C513.96 83.6443 513.971 83.6591 513.978 83.6591C513.986 83.6591 513.992 83.6822 513.992 83.7103C513.992 83.7385 513.99 83.7615 513.987 83.7615ZM513.797 76.5439C513.751 76.6676 513.584 76.7204 513.48 76.6438C513.452 76.6237 513.423 76.6072 513.414 76.6072C513.399 76.6072 513.322 76.4258 513.296 76.3292C513.291 76.3091 513.278 76.2828 513.268 76.2707C513.258 76.2586 513.24 76.229 513.229 76.2049C513.217 76.1807 513.2 76.1478 513.191 76.1317C513.182 76.1156 513.154 76.0531 513.128 75.9927C513.103 75.9324 513.073 75.8665 513.062 75.8464C513.017 75.7616 512.938 75.5976 512.938 75.586C512.938 75.5791 512.922 75.5581 512.902 75.5392C512.882 75.5203 512.865 75.4983 512.865 75.4904C512.865 75.4825 512.849 75.4545 512.829 75.4281C512.809 75.4018 512.792 75.3743 512.792 75.3671C512.792 75.3599 512.776 75.3392 512.757 75.3211C512.666 75.2354 512.707 75.126 512.84 75.1008C512.891 75.0912 512.942 75.078 512.952 75.0715C512.963 75.0651 513.012 75.0694 513.061 75.0811C513.11 75.0928 513.176 75.0992 513.207 75.0952C513.262 75.0881 513.352 75.1149 513.37 75.1441C513.375 75.1524 513.4 75.168 513.426 75.1788C513.532 75.2236 513.647 75.4162 513.663 75.5783C513.668 75.6252 513.684 75.6997 513.699 75.744C513.714 75.7882 513.73 75.8804 513.735 75.9488C513.739 76.0172 513.754 76.1026 513.766 76.1385C513.779 76.1745 513.794 76.2666 513.801 76.3433C513.807 76.4201 513.813 76.4861 513.813 76.4901C513.814 76.4942 513.806 76.5183 513.797 76.5439ZM513.787 79.8983C513.77 79.9311 513.68 79.9185 513.673 79.8822C513.668 79.8569 513.741 79.8349 513.779 79.8498C513.806 79.8598 513.806 79.8633 513.787 79.8983ZM513.099 76.7297C513.067 76.766 513.034 76.785 512.979 76.7981L512.904 76.8162L512.856 76.7636C512.829 76.7347 512.804 76.6926 512.799 76.6701C512.794 76.6476 512.783 76.616 512.774 76.5999C512.765 76.5838 512.727 76.5166 512.689 76.4506C512.631 76.3465 512.585 76.2857 512.473 76.163C512.459 76.148 512.432 76.1252 512.412 76.1123C512.392 76.0994 512.349 76.0681 512.317 76.0426C512.284 76.0172 512.235 75.9846 512.207 75.9703C512.179 75.956 512.149 75.9352 512.141 75.924C512.112 75.8845 511.773 75.7163 511.632 75.6713C511.597 75.66 511.57 75.6389 511.556 75.6118C511.527 75.5566 511.524 75.5616 511.603 75.5271C511.664 75.5006 511.726 75.4564 511.853 75.3487C511.982 75.2392 512.293 75.2644 512.371 75.3907C512.414 75.4616 512.426 75.4772 512.474 75.5222C512.496 75.5431 512.514 75.5659 512.514 75.5728C512.514 75.5797 512.534 75.6057 512.559 75.6306C512.584 75.6556 512.622 75.7028 512.642 75.7356C512.663 75.7684 512.702 75.8223 512.729 75.8555C512.756 75.8887 512.798 75.9578 512.823 76.0091C512.912 76.1924 512.957 76.2783 512.973 76.2985C513.002 76.334 513.142 76.628 513.142 76.6542C513.143 76.668 513.123 76.702 513.099 76.7297ZM512.375 76.9992C512.265 77.1013 512.166 77.0919 512.036 76.9667C511.996 76.9289 511.952 76.8998 511.934 76.8998C511.916 76.8998 511.883 76.8839 511.86 76.8645C511.837 76.845 511.792 76.8247 511.76 76.8193C511.728 76.8139 511.664 76.7969 511.618 76.7815C511.572 76.7661 511.522 76.7535 511.508 76.7534C511.494 76.7534 511.465 76.7442 511.444 76.7331C511.422 76.7219 511.38 76.7047 511.349 76.6948C511.318 76.6849 511.272 76.6642 511.246 76.6488C511.219 76.6328 511.151 76.6152 511.085 76.6076C511.022 76.6003 510.934 76.5848 510.889 76.5731C510.845 76.5614 510.749 76.547 510.677 76.5412C510.497 76.5266 510.455 76.465 510.548 76.3533C510.628 76.2566 510.769 76.1129 510.799 76.0969C510.816 76.0878 510.842 76.0608 510.856 76.0369C510.907 75.9499 511.234 75.9483 511.388 76.0343C511.432 76.059 511.494 76.0921 511.527 76.1078C511.559 76.1235 511.612 76.1617 511.645 76.1926C511.678 76.2235 511.727 76.2619 511.754 76.278C511.781 76.2941 511.813 76.3139 511.826 76.3221C511.838 76.3302 511.881 76.3564 511.922 76.3802C511.962 76.404 512.02 76.4467 512.051 76.4751C512.082 76.5035 512.123 76.5352 512.142 76.5455C512.162 76.5558 512.178 76.5696 512.178 76.5762C512.178 76.5827 512.204 76.5985 512.236 76.6111C512.268 76.6238 512.295 76.643 512.295 76.654C512.295 76.6649 512.328 76.7196 512.368 76.7754C512.458 76.9005 512.459 76.9219 512.375 76.9992ZM512.266 79.9986C512.223 80.0774 512.148 80.2591 512.148 80.2827C512.148 80.2939 512.132 80.3249 512.113 80.3516C512.093 80.3783 512.073 80.4207 512.067 80.4459C512.062 80.471 512.033 80.5443 512.003 80.6087C511.972 80.673 511.943 80.7497 511.938 80.7791C511.932 80.8085 511.918 80.8531 511.905 80.8783C511.893 80.9034 511.873 80.9782 511.861 81.0443C511.849 81.1105 511.831 81.2074 511.819 81.2597C511.808 81.312 511.794 81.391 511.789 81.4353C511.784 81.4795 511.771 81.5303 511.759 81.5482C511.729 81.5954 511.729 82.2993 511.759 82.3466C511.771 82.3644 511.784 82.4152 511.789 82.4594C511.795 82.5037 511.808 82.5695 511.819 82.6057C511.891 82.8407 511.885 83.0244 511.808 82.9559C511.798 82.9474 511.759 82.9227 511.72 82.9011C511.652 82.8625 511.51 82.7393 511.341 82.5733C511.294 82.5273 511.215 82.4557 511.164 82.414C510.747 82.0684 510.717 82.0267 510.727 81.801C510.731 81.7092 510.796 81.4169 510.824 81.3621C510.835 81.342 510.848 81.2926 510.853 81.2524C510.861 81.1871 510.893 81.1087 510.98 80.9349C510.995 80.9052 511.007 80.8698 511.007 80.8562C511.007 80.8427 511.02 80.811 511.035 80.786C511.05 80.7609 511.067 80.7194 511.072 80.6938C511.078 80.6682 511.093 80.6386 511.106 80.628C511.138 80.6013 511.309 80.3437 511.347 80.2648C511.357 80.2447 511.393 80.1948 511.427 80.1538C511.461 80.1129 511.5 80.0553 511.512 80.0258C511.524 79.9963 511.541 79.9722 511.549 79.9722C511.557 79.9722 511.563 79.9654 511.563 79.957C511.563 79.9151 512.051 79.4542 512.067 79.4811C512.075 79.4959 512.097 79.5256 512.114 79.5472C512.132 79.5688 512.151 79.6039 512.156 79.6252C512.162 79.6465 512.195 79.7054 512.23 79.7559C512.303 79.8607 512.311 79.9139 512.266 79.9986ZM511.883 77.6488C511.858 77.688 511.825 77.7269 511.809 77.7353C511.777 77.7524 511.579 77.7405 511.519 77.718C511.376 77.6641 510.534 77.6688 510.426 77.7242C510.404 77.7357 510.315 77.7527 510.228 77.762C510.142 77.7712 510.049 77.7884 510.02 77.8002C509.825 77.8819 509.785 77.7694 509.895 77.4498C509.911 77.4023 509.924 77.3528 509.924 77.3399C509.924 77.3269 509.938 77.2916 509.954 77.2613C509.97 77.231 509.99 77.1752 509.999 77.1372C510.018 77.0473 510.066 76.9948 510.17 76.9481C510.274 76.901 510.63 76.8942 510.746 76.9371C510.781 76.95 510.839 76.9666 510.874 76.974C510.909 76.9814 510.945 76.993 510.954 76.9997C510.963 77.0064 511.01 77.0199 511.058 77.0296C511.107 77.0393 511.176 77.0573 511.212 77.0696C511.248 77.0818 511.308 77.1004 511.344 77.1108C511.381 77.1212 511.467 77.1565 511.536 77.1893C511.605 77.2221 511.684 77.2531 511.711 77.2583C511.876 77.2897 511.973 77.509 511.883 77.6488ZM511.801 79.2659C511.779 79.2848 511.738 79.3159 511.709 79.3349C511.656 79.3712 511.619 79.4057 511.497 79.5326C511.457 79.5746 511.413 79.6149 511.4 79.6221C511.387 79.6294 511.353 79.6765 511.324 79.7269C511.296 79.7774 511.255 79.8351 511.234 79.8552C511.197 79.8891 511.058 80.0866 511.007 80.1752C510.995 80.1964 510.959 80.2492 510.927 80.2926C510.839 80.4141 510.743 80.5976 510.716 80.6995C510.707 80.7333 510.693 80.7647 510.686 80.7691C510.679 80.7736 510.661 80.8117 510.647 80.8537C510.634 80.8958 510.61 80.95 510.595 80.9742C510.58 80.9985 510.568 81.0348 510.568 81.0549C510.568 81.075 510.555 81.1202 510.539 81.1552C510.523 81.1903 510.51 81.2397 510.509 81.265C510.509 81.2902 510.495 81.3406 510.477 81.3768C510.46 81.413 510.438 81.4656 510.43 81.4938C510.408 81.5642 510.387 81.5583 510.327 81.4645C510.299 81.4203 510.248 81.3522 510.213 81.3132C510.179 81.2742 510.143 81.2265 510.133 81.2071C510.122 81.1878 510.109 81.1719 510.102 81.1719C510.096 81.1719 510.08 81.1505 510.066 81.1244C510.053 81.0982 510.019 81.0471 509.993 81.0107C509.966 80.9743 509.936 80.9205 509.926 80.8912C509.916 80.8618 509.899 80.8302 509.888 80.8209C509.877 80.8117 509.863 80.7667 509.858 80.721C509.852 80.6753 509.834 80.6083 509.817 80.5721C509.771 80.4721 509.771 80.1936 509.818 80.114C509.837 80.0834 509.851 80.051 509.851 80.042C509.851 80.025 509.949 79.8737 509.977 79.8479C509.996 79.8302 510.041 79.7636 510.071 79.7092C510.113 79.6328 510.383 79.3725 510.465 79.3288C510.505 79.3078 510.509 79.3043 510.585 79.2412C510.614 79.2168 510.648 79.1968 510.659 79.1968C510.671 79.1968 510.692 79.1842 510.706 79.1689C510.72 79.1535 510.752 79.1326 510.778 79.1223C510.803 79.1121 510.84 79.0917 510.859 79.0771C510.878 79.0625 510.908 79.0505 510.925 79.0505C510.942 79.0505 510.987 79.034 511.025 79.0139C511.063 78.9938 511.102 78.9773 511.113 78.9773C511.123 78.9772 511.151 78.9667 511.175 78.954C511.285 78.8959 511.691 78.7685 511.745 78.7748C511.863 78.7885 511.907 79.1763 511.801 79.2659ZM511.741 78.3729C511.706 78.4145 511.586 78.4799 511.545 78.4799C511.537 78.4799 511.503 78.4925 511.47 78.5079C511.437 78.5234 511.37 78.5459 511.322 78.558C511.16 78.5986 511.076 78.6256 511.021 78.6544C510.99 78.6701 510.939 78.6902 510.906 78.699C510.873 78.7079 510.846 78.7208 510.846 78.7277C510.846 78.7347 510.813 78.7482 510.773 78.7579C510.733 78.7676 510.696 78.7815 510.692 78.7888C510.687 78.7962 510.662 78.811 510.637 78.8217C510.597 78.8385 510.518 78.8869 510.385 78.9773C510.368 78.9894 510.334 79.0122 510.311 79.0279C510.287 79.0437 510.249 79.0722 510.224 79.0913C510.2 79.1104 510.162 79.1403 510.14 79.1577C510.117 79.1752 510.077 79.212 510.052 79.2395C510.026 79.267 509.992 79.2999 509.977 79.3127C509.874 79.3986 509.851 79.4212 509.851 79.4361C509.851 79.4669 509.763 79.5479 509.729 79.5479C509.668 79.5479 509.648 79.5178 509.638 79.4089C509.633 79.3526 509.619 79.292 509.608 79.2741C509.583 79.2336 509.579 78.8016 509.604 78.7556C509.613 78.7392 509.629 78.6623 509.64 78.5846C509.673 78.35 509.752 78.2217 509.886 78.1859C509.919 78.177 509.964 78.1606 509.985 78.1494C510.006 78.1382 510.075 78.1222 510.139 78.1138C510.202 78.1054 510.283 78.0893 510.32 78.0779C510.389 78.0562 510.833 78.0128 511.007 78.0106C511.16 78.0088 511.707 78.0645 511.731 78.0844C511.797 78.1392 511.803 78.3014 511.741 78.3729Z" fill="#444444"/>
</g>
</g>
<defs>
<clipPath id="clip0">
<rect width="538" height="106" fill="white"/>
</clipPath>
<clipPath id="clip1">
<rect width="20" height="14.6237" fill="white" transform="translate(522.624 66) rotate(90)"/>
</clipPath>
</defs>
</svg>
